<svg width="17" height="13" viewBox="0 0 17 13" fill="none" xmlns="http://www.w3.org/2000/svg">
<path d="M8.92429 0C8.22032 0 7.64918 0.545898 7.64918 1.21875V3.55723L9.5459 6.56348C9.61232 6.52285 9.68935 6.5 9.77436 6.5H10.6244C10.8582 6.5 11.0495 6.68281 11.0495 6.90625V7.71875C11.0495 7.94219 10.8582 8.125 10.6244 8.125H10.5315L12.4919 11.2328C12.8213 11.7559 12.8346 12.4084 12.5238 12.9416C12.5132 12.9619 12.4999 12.9822 12.4866 13H15.7249C16.4289 13 17 12.4541 17 11.7812V6.09375C17 5.4209 16.4289 4.875 15.7249 4.875H15.0873V3.04688C15.0873 2.70918 14.8031 2.4375 14.4498 2.4375C14.0965 2.4375 13.8122 2.70918 13.8122 3.04688V4.875H12.7496V1.21875C12.7496 0.545898 12.1785 0 11.4745 0H8.92429ZM9.77436 1.625H10.6244C10.8582 1.625 11.0495 1.80781 11.0495 2.03125V2.84375C11.0495 3.06719 10.8582 3.25 10.6244 3.25H9.77436C9.54059 3.25 9.34933 3.06719 9.34933 2.84375V2.03125C9.34933 1.80781 9.54059 1.625 9.77436 1.625ZM9.34933 4.46875C9.34933 4.24531 9.54059 4.0625 9.77436 4.0625H10.6244C10.8582 4.0625 11.0495 4.24531 11.0495 4.46875V5.28125C11.0495 5.50469 10.8582 5.6875 10.6244 5.6875H9.77436C9.54059 5.6875 9.34933 5.50469 9.34933 5.28125V4.46875ZM13.5997 6.90625C13.5997 6.68281 13.791 6.5 14.0247 6.5H14.8748C15.1086 6.5 15.2998 6.68281 15.2998 6.90625V7.71875C15.2998 7.94219 15.1086 8.125 14.8748 8.125H14.0247C13.791 8.125 13.5997 7.94219 13.5997 7.71875V6.90625ZM14.0247 8.9375H14.8748C15.1086 8.9375 15.2998 9.12031 15.2998 9.34375V10.1562C15.2998 10.3797 15.1086 10.5625 14.8748 10.5625H14.0247C13.791 10.5625 13.5997 10.3797 13.5997 10.1562V9.34375C13.5997 9.12031 13.791 8.9375 14.0247 8.9375ZM5.94903 4.79629L7.5376 7.3125H5.92246L4.64735 8.9375L3.99385 7.89141L5.94903 4.79629ZM6.73003 3.67402C6.56267 3.40996 6.2678 3.25 5.94903 3.25C5.63025 3.25 5.33538 3.40996 5.16802 3.67402L0.133982 11.6518C-0.0386897 11.926 -0.0440027 12.2688 0.115386 12.548C0.274775 12.8273 0.582928 13 0.914988 13H10.9831C11.3151 13 11.6206 12.8273 11.7827 12.548C11.9447 12.2688 11.9367 11.926 11.7641 11.6518L6.73003 3.67402Z" fill="white"/>
</svg>
