<svg width="14" height="12" viewBox="0 0 14 12" fill="none" xmlns="http://www.w3.org/2000/svg">
<path d="M14 5.57143C14 8.64911 10.8664 11.1429 7 11.1429C6.13867 11.1429 5.31289 11.0196 4.55 10.792L0.4375 12L1.55586 9.075C0.582422 8.11875 0 6.9 0 5.57143C0 2.49375 3.13359 0 7 0C10.8664 0 14 2.49375 14 5.57143ZM6.34375 8.35714H7.65625V7.71429V6.21429H9.1875H9.84375V4.92857H9.1875H7.65625V3.42857V2.78571H6.34375V3.42857V4.92857H4.8125H4.15625V6.21429H4.8125H6.34375V7.71429V8.35714Z" fill="white"/>
</svg>
