<svg width="12" height="14" viewBox="0 0 12 14" fill="none" xmlns="http://www.w3.org/2000/svg">
<g clip-path="url(#clip0_657_308)">
<path d="M3.42857 0C3.90268 0 4.28571 0.391016 4.28571 0.875V1.75H7.71429V0.875C7.71429 0.391016 8.09732 0 8.57143 0C9.04554 0 9.42857 0.391016 9.42857 0.875V1.75H10.7143C11.4241 1.75 12 2.33789 12 3.0625V4.375H0V3.0625C0 2.33789 0.575893 1.75 1.28571 1.75H2.57143V0.875C2.57143 0.391016 2.95446 0 3.42857 0ZM0 5.25H12V12.6875C12 13.4121 11.4241 14 10.7143 14H1.28571C0.575893 14 0 13.4121 0 12.6875V5.25ZM8.8125 8.33984C9.06429 8.08281 9.06429 7.66719 8.8125 7.41289C8.56071 7.15859 8.15357 7.15586 7.90446 7.41289L5.35982 10.0105L4.10089 8.72539C3.84911 8.46836 3.44196 8.46836 3.19286 8.72539C2.94375 8.98242 2.94107 9.39805 3.19286 9.65234L4.90714 11.4023C5.15893 11.6594 5.56607 11.6594 5.81518 11.4023L8.8125 8.33984Z" fill="#0F172A"/>
</g>
<defs>
<clipPath id="clip0_657_308">
<rect width="12" height="14" fill="white"/>
</clipPath>
</defs>
</svg>
