<svg width="19" height="12" viewBox="0 0 19 12" fill="none" xmlns="http://www.w3.org/2000/svg">
<path d="M1.9 1.38462H13.3C13.5612 1.38462 13.775 1.59231 13.775 1.84615V2.48365L13.1041 3.01731C13.6147 2.85577 14.1609 2.76923 14.725 2.76923C14.8853 2.76923 15.0427 2.775 15.2 2.78942V1.84615C15.2 0.827885 14.348 0 13.3 0H1.9C0.852031 0 0 0.827885 0 1.84615V9.23077C0 10.249 0.852031 11.0769 1.9 11.0769H10.6934C10.3431 10.6644 10.0581 10.1971 9.85625 9.69231H1.9C1.63875 9.69231 1.425 9.48462 1.425 9.23077V4.275L5.64062 7.63846C6.75984 8.53269 8.36594 8.54712 9.50297 7.68173C9.52969 6.83942 9.76719 6.05192 10.168 5.3625L8.65687 6.56827C8.04234 7.05865 7.16062 7.05865 6.54609 6.56827L1.425 2.48365V1.84615C1.425 1.59231 1.63875 1.38462 1.9 1.38462ZM19 7.84615C19 6.74449 18.5496 5.68794 17.7479 4.90894C16.9462 4.12994 15.8588 3.69231 14.725 3.69231C13.5912 3.69231 12.5038 4.12994 11.7021 4.90894C10.9004 5.68794 10.45 6.74449 10.45 7.84615C10.45 8.94782 10.9004 10.0044 11.7021 10.7834C12.5038 11.5624 13.5912 12 14.725 12C15.8588 12 16.9462 11.5624 17.7479 10.7834C18.5496 10.0044 19 8.94782 19 7.84615ZM16.723 6.59712C16.907 6.77596 16.907 7.07019 16.723 7.24904L14.5855 9.32596C14.4014 9.50481 14.0986 9.50481 13.9145 9.32596L12.727 8.17212C12.543 7.99327 12.543 7.69904 12.727 7.52019C12.9111 7.34135 13.2139 7.34135 13.398 7.52019L14.25 8.34808L16.052 6.59712C16.2361 6.41827 16.5389 6.41827 16.723 6.59712Z" fill="white"/>
</svg>
