<svg width="15" height="13" viewBox="0 0 15 13" fill="none" xmlns="http://www.w3.org/2000/svg">
<path d="M1.875 2.28125C1.61719 2.28125 1.40625 2.49219 1.40625 2.75V3.39746L6.45996 7.5459C7.06641 8.04395 7.93652 8.04395 8.54297 7.5459L13.5938 3.39746V2.75C13.5938 2.49219 13.3828 2.28125 13.125 2.28125H1.875ZM1.40625 5.2168V10.25C1.40625 10.5078 1.61719 10.7188 1.875 10.7188H13.125C13.3828 10.7188 13.5938 10.5078 13.5938 10.25V5.2168L9.43359 8.63281C8.30859 9.55566 6.68848 9.55566 5.56641 8.63281L1.40625 5.2168ZM0 2.75C0 1.71582 0.84082 0.875 1.875 0.875H13.125C14.1592 0.875 15 1.71582 15 2.75V10.25C15 11.2842 14.1592 12.125 13.125 12.125H1.875C0.84082 12.125 0 11.2842 0 10.25V2.75Z" fill="white"/>
</svg>
