<svg width="13" height="13" viewBox="0 0 13 13" fill="none" xmlns="http://www.w3.org/2000/svg">
<path d="M6.5 0C7.43437 0 8.24687 0.525586 8.65566 1.29746C9.49102 1.04102 10.4355 1.24414 11.0957 1.9043C11.7559 2.56445 11.959 3.51152 11.7025 4.34434C12.4744 4.75313 13 5.56563 13 6.5C13 7.43437 12.4744 8.24687 11.7025 8.65566C11.959 9.49102 11.7559 10.4355 11.0957 11.0957C10.4355 11.7559 9.48848 11.959 8.65566 11.7025C8.24687 12.4744 7.43437 13 6.5 13C5.56563 13 4.75313 12.4744 4.34434 11.7025C3.50898 11.959 2.56445 11.7559 1.9043 11.0957C1.24414 10.4355 1.04102 9.48848 1.29746 8.65566C0.525586 8.24687 0 7.43437 0 6.5C0 5.56563 0.525586 4.75313 1.29746 4.34434C1.04102 3.50898 1.24414 2.56445 1.9043 1.9043C2.56445 1.24414 3.51152 1.04102 4.34434 1.29746C4.75313 0.525586 5.56563 0 6.5 0ZM4.875 5.6875C5.32441 5.6875 5.6875 5.32441 5.6875 4.875C5.6875 4.42559 5.32441 4.0625 4.875 4.0625C4.42559 4.0625 4.0625 4.42559 4.0625 4.875C4.0625 5.32441 4.42559 5.6875 4.875 5.6875ZM8.9375 8.125C8.9375 7.67559 8.57441 7.3125 8.125 7.3125C7.67559 7.3125 7.3125 7.67559 7.3125 8.125C7.3125 8.57441 7.67559 8.9375 8.125 8.9375C8.57441 8.9375 8.9375 8.57441 8.9375 8.125ZM8.55664 5.30664C8.79531 5.06797 8.79531 4.68203 8.55664 4.4459C8.31797 4.20977 7.93203 4.20723 7.6959 4.4459L4.44336 7.69336C4.20469 7.93203 4.20469 8.31797 4.44336 8.5541C4.68203 8.79023 5.06797 8.79277 5.3041 8.5541L8.55664 5.30664Z" fill="white"/>
</svg>
