<svg width="164" height="31" viewBox="0 0 164 31" fill="none" xmlns="http://www.w3.org/2000/svg">
<g clip-path="url(#clip0_328_1310)">
<path d="M19.1591 0.00485242C15.498 0.00576453 11.9139 1.03556 8.83108 2.9723C5.74827 4.90903 3.29593 7.67159 1.76443 10.9329C0.232932 14.1941 -0.313572 17.8175 0.189631 21.3739C0.692833 24.9304 2.22467 28.2709 4.60374 31C6.2887 30.4607 8.00338 30.0151 9.73958 29.6655C10.1541 27.6864 12.0515 18.9764 14.2215 14.6522C14.1789 14.5778 14.1435 14.4997 14.1158 14.4189C13.9193 14.4969 13.7048 14.5204 13.4957 14.4869C13.2866 14.4533 13.0909 14.3641 12.93 14.2288C12.7691 14.0936 12.6492 13.9176 12.5834 13.7201C12.5176 13.5225 12.5084 13.311 12.5569 13.1087C12.0614 13.3387 11.5479 13.8213 11.1069 14.806C10.96 14.7562 10.8284 14.6706 10.7244 14.5573C10.6205 14.444 10.5475 14.3067 10.5124 14.1582C10.4001 13.6529 10.0616 13.9833 10.093 14.2683C10.1244 14.5534 10.5603 15.2158 9.85188 15.7842C9.14343 16.3527 8.03534 17.1252 7.93626 16.858C7.83717 16.5908 7.80745 15.6417 7.66213 15.8474C7.5168 16.0531 7.64726 17.2208 7.37313 17.3617C7.099 17.5026 5.441 18.5618 4.65163 18.6573C4.65163 18.6573 5.05457 15.1202 9.03113 13.2415C12.3934 11.6527 14.2429 11.9459 14.735 12.0787C14.2198 11.9167 12.4115 11.3612 12.2183 11.1571C11.9937 10.9207 11.9128 10.5579 11.5743 10.5741C11.2357 10.5903 9.9972 11.7888 9.67518 11.8698C9.35315 11.9507 9.25572 11.7434 9.30526 11.5701C9.3548 11.3968 9.49848 10.8284 9.28875 10.8284C9.07902 10.8284 8.72562 12.218 8.38709 12.2649C8.04855 12.3119 6.16596 12.2811 5.1999 11.5232C5.1999 11.5232 8.72562 8.57071 10.3671 8.50754C12.0086 8.44438 15.0521 11.8536 15.1562 11.8698C15.2602 11.8859 15.3494 11.128 15.3015 10.9385C15.2536 10.749 14.6574 10.4964 14.593 10.1805C14.5286 9.86473 14.4642 9.34324 13.2719 9.50195C13.2719 9.50195 12.0796 8.76019 12.1291 8.47515C12.1787 8.19011 12.3868 7.92288 12.1126 7.89211C11.8385 7.86134 10.4711 8.39579 10.3093 8.21602C10.1475 8.03625 10.3093 7.74311 10.1805 7.78198C10.0517 7.82085 9.47205 8.48487 9.16655 8.4298C8.86104 8.37474 7.89497 7.98766 7.52506 7.43539C7.52506 7.43539 11.7427 5.84013 12.8211 6.18833C13.8994 6.53654 15.4022 9.36267 16.0925 11.1766C16.0925 11.1766 18.6109 7.85324 19.9485 7.7917C21.2861 7.73015 23.8656 9.48414 23.8656 9.48414C23.8656 9.48414 22.2803 10.1708 21.7518 9.83558C21.2234 9.50033 20.6636 9.22501 20.6636 9.22501C20.6636 9.22501 21.0203 9.92466 20.8056 10.0024C20.5909 10.0801 19.2945 10.5514 19.0155 10.4883C18.7364 10.4251 17.6498 10.1757 17.6498 10.1984C17.6498 10.221 17.6811 10.9272 17.6332 11.0373C17.5854 11.1474 16.3121 11.9766 16.3121 11.9766C16.3121 11.9766 20.5595 10.7927 22.3249 11.1798C24.0902 11.5669 26.1379 14.7542 26.1379 14.7542C26.1379 14.7542 23.4544 15.1639 22.9078 14.6603C22.3612 14.1566 22.0705 13.3225 21.9533 13.3225C21.836 13.3225 22.2109 14.4562 21.8129 14.4562C21.4149 14.4562 19.9452 14.2667 19.2483 13.4845C18.5514 12.7022 18.3351 12.5791 18.3136 12.6423C18.2922 12.7054 18.4788 13.2318 18.2393 13.1897C18.018 13.1508 17.1164 13.0034 16.7927 12.9743C16.7635 12.9725 16.7343 12.9725 16.7052 12.9743C16.5119 12.9743 20.1285 14.6489 21.4595 18.1569C22.7906 21.6649 22.3827 24.3452 22.3827 24.3452C22.3827 24.3452 20.6867 22.9994 20.7015 21.1838C20.7015 21.1838 20.8155 20.2364 20.6536 20.2364C20.4918 20.2364 20.4885 20.868 20.3481 20.8842C20.2078 20.9004 19.0435 20.1263 18.9643 18.1698C18.885 16.2134 18.3995 16.4013 18.416 16.4644C18.4325 16.5276 18.3681 17.3001 18.2509 17.2224C17.5935 16.4486 17.033 15.6004 16.5813 14.6959C16.4595 14.8932 16.2879 15.0564 16.0832 15.1698C15.8784 15.2833 15.6473 15.3432 15.4121 15.3437C15.3741 15.3437 15.3378 15.3356 15.2998 15.334C14.2892 17.5771 12.6361 22.1361 11.8005 29.293C12.9317 29.11 14.1438 28.9513 15.4336 28.8282C16.5268 27.6945 16.9347 27.0078 18.1419 26.8539C19.6463 26.6612 19.3193 25.9875 20.2028 26.7567C20.9492 27.4046 21.6891 28.5561 22.5643 28.5868C23.4396 28.6176 24.3264 27.4434 26.1379 25.7623C27.7464 24.2707 28.5457 24.7355 28.5457 24.7355C28.5457 24.7355 29.8536 26.1478 30.8015 26.3405C31.7196 26.5268 33.191 28.9075 33.191 28.9075C33.7725 29.0645 34.3389 29.2709 34.8837 29.5246C36.8833 26.7073 38.0576 23.4065 38.2791 19.9808C38.5007 16.555 37.7609 13.1352 36.1402 10.0928C34.5196 7.05029 32.0799 4.50143 29.0862 2.72298C26.0925 0.944525 22.6592 0.00445439 19.1591 0.00485242ZM28.7372 10.4753C28.3892 10.4763 28.0487 10.3759 27.7588 10.187C27.4689 9.99804 27.2427 9.729 27.1088 9.41391C26.975 9.09883 26.9394 8.75187 27.0067 8.41697C27.074 8.08206 27.2411 7.77427 27.4869 7.53256C27.7327 7.29086 28.046 7.1261 28.3873 7.05915C28.7286 6.9922 29.0825 7.02608 29.4042 7.15648C29.7258 7.28689 30.0008 7.50796 30.1943 7.79171C30.3877 8.07546 30.491 8.40913 30.491 8.75048C30.4901 9.20722 30.3044 9.64494 29.9746 9.96745C29.6448 10.29 29.198 10.4709 28.7323 10.4705L28.7372 10.4753Z" fill="url(#paint0_linear_328_1310)"/>
<path d="M53.0738 15.8766C51.8187 15.8766 51.2969 15.9138 51.2969 15.9138L51.4703 15.5899C51.8567 14.8708 51.9541 14.738 51.9541 9.05336C51.9541 3.53875 51.8765 3.46263 51.4703 2.70468L51.2969 2.38077C51.2969 2.38077 51.7923 2.41802 53.054 2.41802C54.3156 2.41802 54.8127 2.38077 54.8127 2.38077L54.6393 2.70468C54.2529 3.42538 54.1554 3.55657 54.1554 9.24284C54.1554 14.7493 54.2331 14.8319 54.6393 15.5899L54.8127 15.9138C54.8127 15.9138 54.2958 15.8766 53.0738 15.8766Z" fill="white"/>
<path d="M69.5554 15.3016L69.5175 15.8879H63.4882C62.4462 15.8879 62.002 15.9073 62.002 15.9073L62.1671 15.5834C62.5535 14.8643 62.6493 14.7315 62.6493 9.04686C62.6493 3.53225 62.5733 3.45613 62.1671 2.69818L62.002 2.37427C62.002 2.37427 62.4974 2.41152 63.7789 2.41152C65.0603 2.41152 65.5558 2.37427 65.5558 2.37427L65.3625 2.69818C64.9761 3.41888 64.8803 3.64562 64.8803 8.87518V14.5436H66.3517C68.7479 14.5436 69.0567 13.993 69.7718 12.971C69.7685 12.971 69.6727 13.6707 69.5554 15.3016Z" fill="white"/>
<path d="M76.2416 16.1357C72.8794 16.1357 71.1982 13.8424 71.1982 10.6583C71.1982 8.39095 72.2023 4.91699 76.453 4.91699C79.8152 4.91699 81.4963 7.18438 81.4963 10.3749C81.4963 12.6488 80.4923 16.1357 76.2416 16.1357ZM76.3176 6.25637C74.3475 6.25637 73.5366 7.73341 73.5366 10.5385C73.5366 13.1541 74.25 14.7834 76.3754 14.7834C78.3471 14.7834 79.158 13.3047 79.158 10.4818C79.158 7.87269 78.4247 6.26285 76.3176 6.26285V6.25637Z" fill="white"/>
<path d="M91.2871 9.40803L89.0841 15.9073C89.0841 15.9073 88.5623 15.8701 87.6739 15.8701C86.7854 15.8701 86.2636 15.9073 86.2636 15.9073L84.196 9.44528C83.2878 6.65964 82.9789 5.63608 82.3613 5.12592C82.3613 5.12592 82.9393 5.16317 84.196 5.16317C85.6063 5.16317 86.148 5.12592 86.148 5.12592C85.897 5.29597 85.5865 5.56158 85.5865 6.22398C85.5865 6.73576 85.7995 7.47428 86.3214 9.23798L87.6425 13.6335C87.7779 14.108 87.8935 14.6182 87.9133 14.7137C87.9133 14.657 88.0471 14.1452 88.2023 13.6335L89.535 9.3886C90.1146 7.5504 90.3475 6.75519 90.3475 6.22398C90.3475 5.56158 90.0766 5.29597 89.8256 5.12592C89.8256 5.12592 90.3656 5.16317 91.5266 5.16317C92.6875 5.16317 93.1879 5.12592 93.1879 5.12592C92.5091 5.7122 92.0451 7.17142 91.2871 9.40803Z" fill="white"/>
<path d="M96.1628 10.6016C96.1628 12.5921 96.8762 14.6376 99.4854 14.6376C102.152 14.6376 102.848 13.3306 102.848 13.3306C102.848 14.7137 101.746 16.0968 98.8843 16.0968C95.9481 16.0968 93.9004 14.3153 93.9004 10.5903C93.9004 6.63048 96.1017 4.92184 98.7687 4.92184C102.897 4.92184 103.27 8.29539 103.27 10.4364V10.6065L96.1628 10.6016ZM98.7192 6.13004C97.5632 6.13004 96.2272 6.60295 96.1694 9.59752L101.011 9.23635C101.011 8.08161 100.866 6.13004 98.7192 6.13004Z" fill="white"/>
<path d="M119.019 4.68861C118.82 4.47462 118.585 4.29553 118.324 4.15902C117.86 3.89341 117.125 3.70392 116.217 3.70392H115V9.23634C115 14.7428 115.077 14.8254 115.484 15.5834L115.657 15.9073C115.657 15.9073 115.135 15.8765 113.912 15.8765C112.688 15.8765 112.135 15.9138 112.135 15.9138L112.308 15.5899C112.695 14.8708 112.79 14.738 112.79 9.05333V3.70878H111.573C110.665 3.70878 109.932 3.89827 109.468 4.16388C108.972 4.46673 108.791 4.64974 108.772 4.69347C108.815 4.27803 108.834 3.86065 108.83 3.44317C108.83 2.72409 108.81 2.40179 108.81 2.40179H118.973C118.973 2.40179 118.955 2.72571 118.955 3.44317C118.954 3.85915 118.975 4.27489 119.019 4.68861Z" fill="white"/>
<path d="M124.315 6.65964C122.692 6.65964 122.421 7.75932 122.421 7.75932V10.7539C122.421 14.8838 122.614 15.036 122.916 15.585L123.09 15.9089C123.09 15.9089 122.594 15.8717 121.371 15.8717C120.116 15.8717 119.632 15.9089 119.632 15.9089L119.805 15.585C120.116 15.036 120.289 14.8838 120.289 10.7539V10.1466C120.289 6.86856 120.124 6.33735 119.805 5.78831L119.632 5.4644L122.4 4.99311L122.304 7.62652C122.799 5.16316 124.409 4.91699 125.009 4.91699C126.013 4.91699 126.341 5.2571 126.341 5.2571C126.341 5.2571 126.303 5.69438 126.303 6.50902C126.303 7.51315 126.341 7.87269 126.341 7.87269C125.82 7.07749 125.222 6.65964 124.315 6.65964Z" fill="white"/>
<path d="M133.877 16.0385L133.975 13.8019C133.491 15.849 131.927 16.1146 130.805 16.1146C128.063 16.1146 127.405 14.2959 127.405 12.9694C127.405 9.74652 130.213 9.55703 131.945 9.55703C132.585 9.55489 133.224 9.5933 133.859 9.67202V8.83957C133.859 8.11886 133.839 7.41759 133.472 6.94468C133.162 6.54627 132.564 6.26285 131.501 6.26285C130.883 6.26285 129.395 6.3001 128.528 7.62652C128.528 7.62652 128.568 7.19085 128.568 6.50902C128.568 5.82718 128.528 5.44659 128.528 5.44659C128.528 5.44659 129.534 4.91699 131.93 4.91699C134.036 4.91699 134.924 5.46602 135.35 6.01505C135.968 6.77301 135.968 7.75932 135.968 8.97237C135.968 9.50197 135.948 10.6016 135.948 12.5532C135.948 13.9363 136.065 14.6182 136.412 15.2449L136.577 15.5688L133.877 16.0385ZM133.859 10.8656C133.359 10.8021 132.855 10.7766 132.351 10.7895C131.347 10.7895 129.626 10.8462 129.626 12.78C129.626 14.1242 130.497 14.7121 131.616 14.7121C133.433 14.7121 133.859 13.6513 133.859 13.6513V10.8656Z" fill="white"/>
<path d="M146.553 9.40803L144.35 15.9073C144.35 15.9073 143.829 15.8701 142.94 15.8701C142.052 15.8701 141.528 15.9073 141.528 15.9073L139.462 9.44528C138.554 6.65964 138.244 5.63608 137.626 5.12592C137.626 5.12592 138.206 5.16317 139.462 5.16317C140.873 5.16317 141.413 5.12592 141.413 5.12592C141.162 5.29597 140.853 5.56158 140.853 6.22398C140.853 6.73576 141.066 7.47428 141.588 9.23798L142.901 13.6335C143.036 14.108 143.152 14.6182 143.171 14.7137C143.171 14.657 143.307 14.1452 143.462 13.6335L144.793 9.3886C145.373 7.5504 145.604 6.75519 145.604 6.22398C145.604 5.56158 145.333 5.29597 145.082 5.12592C145.082 5.12592 145.624 5.16317 146.783 5.16317C147.942 5.16317 148.444 5.12592 148.444 5.12592C147.766 5.7122 147.306 7.17142 146.553 9.40803Z" fill="white"/>
<path d="M151.421 10.6016C151.421 12.5921 152.136 14.6376 154.746 14.6376C157.411 14.6376 158.106 13.3306 158.106 13.3306C158.106 14.7137 157.005 16.0968 154.143 16.0968C151.205 16.0968 149.157 14.3153 149.157 10.5903C149.157 6.63048 151.36 4.92184 154.027 4.92184C158.156 4.92184 158.529 8.29539 158.529 10.4364V10.6065L151.421 10.6016ZM153.971 6.13004C152.815 6.13004 151.479 6.60295 151.421 9.59752L156.271 9.23635C156.271 8.08161 156.116 6.13004 153.971 6.13004Z" fill="white"/>
<path d="M162.281 15.8765C161.044 15.8765 160.561 15.9138 160.561 15.9138L160.726 15.5899C161.094 14.9275 161.21 14.5485 161.21 10.7587V6.50901C161.21 3.05934 161.094 2.49088 160.726 1.78961L160.561 1.4657L163.401 0.979828C163.401 0.979828 163.343 3.02695 163.343 4.9024V10.7539C163.343 14.4108 163.441 14.8837 163.827 15.585L163.992 15.9089C163.992 15.9089 163.517 15.8765 162.281 15.8765Z" fill="white"/>
<path d="M51.5826 24.0051C51.8617 23.5113 52.2727 23.1015 52.7716 22.8196C53.2795 22.5329 53.8567 22.3853 54.4428 22.392C55.1089 22.3779 55.7647 22.5559 56.3287 22.9038C56.871 23.2518 57.2831 23.7635 57.5028 24.3614H56.4707C56.3042 23.9904 56.0289 23.6763 55.6797 23.4593C55.3071 23.2383 54.8781 23.126 54.4428 23.1354C54.0071 23.1313 53.5784 23.2432 53.2026 23.4593C52.8341 23.672 52.5351 23.9832 52.3405 24.3566C52.135 24.7803 52.0284 25.2437 52.0284 25.713C52.0284 26.1822 52.135 26.6456 52.3405 27.0693C52.5352 27.4422 52.8342 27.7529 53.2026 27.965C53.5793 28.1782 54.0079 28.2874 54.4428 28.2808C54.8767 28.293 55.3053 28.1853 55.6797 27.9698C56.0294 27.7556 56.305 27.4429 56.4707 27.0726H57.5028C57.2799 27.6632 56.868 28.1672 56.3287 28.5091C55.7634 28.8536 55.1081 29.0292 54.4428 29.0144C53.8573 29.0213 53.2806 28.8754 52.7716 28.5917C52.2736 28.3138 51.8625 27.9078 51.5826 27.4175C51.2969 26.8945 51.1475 26.3103 51.1475 25.717C51.1475 25.1237 51.2969 24.5395 51.5826 24.0165V24.0051Z" fill="#AE8554"/>
<path d="M61.0455 28.5933C60.5438 28.3148 60.1292 27.9071 59.8466 27.4143C59.5582 26.8906 59.4072 26.3048 59.4072 25.7097C59.4072 25.1146 59.5582 24.5288 59.8466 24.0051C60.1286 23.5115 60.5433 23.1031 61.0455 22.8245C61.5607 22.5472 62.1389 22.4018 62.7266 22.4018C63.3143 22.4018 63.8925 22.5472 64.4077 22.8245C64.908 23.1018 65.321 23.5085 65.6017 24.0003C65.8868 24.5264 66.0359 25.1131 66.0359 25.7089C66.0359 26.3047 65.8868 26.8914 65.6017 27.4175C65.321 27.9093 64.908 28.316 64.4077 28.5933C63.8925 28.8706 63.3143 29.016 62.7266 29.016C62.1389 29.016 61.5607 28.8706 61.0455 28.5933ZM63.9668 27.9666C64.339 27.7533 64.6415 27.4404 64.8387 27.0645C65.0474 26.641 65.1558 26.1768 65.1558 25.7065C65.1558 25.2361 65.0474 24.7719 64.8387 24.3485C64.6413 23.9755 64.3408 23.6646 63.9717 23.4512C63.5889 23.2441 63.1588 23.1354 62.7216 23.1354C62.2844 23.1354 61.8543 23.2441 61.4715 23.4512C61.1024 23.6646 60.802 23.9755 60.6045 24.3485C60.3959 24.7719 60.2875 25.2361 60.2875 25.7065C60.2875 26.1768 60.3959 26.641 60.6045 27.0645C60.8018 27.4404 61.1043 27.7533 61.4765 27.9666C61.8575 28.1737 62.286 28.2824 62.7216 28.2824C63.1573 28.2824 63.5858 28.1737 63.9668 27.9666Z" fill="#AE8554"/>
<path d="M69.043 28.7877C68.72 28.6529 68.4403 28.4346 68.2339 28.1561C68.0361 27.8837 67.9304 27.5575 67.9317 27.2232H68.8498C68.876 27.5164 69.0126 27.7895 69.233 27.9892C69.5066 28.2134 69.8582 28.3248 70.2139 28.3002C70.5642 28.3193 70.9095 28.2121 71.1849 27.999C71.2996 27.904 71.3911 27.785 71.4525 27.6507C71.514 27.5165 71.5439 27.3703 71.5399 27.2232C71.5498 27.0034 71.4756 26.788 71.3319 26.6191C71.1886 26.4628 71.0098 26.3419 70.81 26.266C70.5342 26.165 70.253 26.0785 69.9678 26.0069C69.6108 25.9207 69.2609 25.8086 68.9208 25.6716C68.6542 25.5569 68.4225 25.3761 68.2487 25.1469C68.0486 24.8658 67.9498 24.5273 67.968 24.1849C67.9622 23.8523 68.0583 23.5257 68.2438 23.2472C68.4345 22.9691 68.702 22.75 69.015 22.6155C69.3744 22.4609 69.7637 22.3847 70.1561 22.392C70.7011 22.3695 71.2376 22.5301 71.677 22.8471C71.8676 22.9916 72.0249 23.1739 72.1387 23.3821C72.2525 23.5903 72.3203 23.8197 72.3376 24.0553H71.3913C71.3502 23.7966 71.2073 23.5641 70.9933 23.4075C70.7279 23.2083 70.3991 23.1078 70.0652 23.1241C69.7476 23.1103 69.4352 23.2072 69.1834 23.3978C69.0703 23.4911 68.9807 23.6088 68.9217 23.7417C68.8627 23.8746 68.8358 24.0191 68.8432 24.1638C68.8341 24.3743 68.9067 24.5803 69.0463 24.7404C69.1826 24.8892 69.3522 25.0051 69.5418 25.0789C69.7416 25.1566 70.0207 25.2408 70.3807 25.3445C70.739 25.4353 71.09 25.5517 71.431 25.6927C71.7005 25.8095 71.9352 25.9918 72.113 26.2223C72.3168 26.5055 72.4169 26.848 72.397 27.194C72.3977 27.5088 72.3097 27.8176 72.1427 28.0864C71.9583 28.3761 71.696 28.6104 71.3847 28.7634C71.0178 28.9442 70.6112 29.0337 70.2007 29.0241C69.8021 29.0264 69.4076 28.9458 69.043 28.7877Z" fill="#AE8554"/>
<path d="M78.6905 22.4763V23.1646H76.8905V28.9529H76.0284V23.1646H74.2119V22.4779L78.6905 22.4763Z" fill="#AE8554"/>
<path d="M84.6006 27.5115H81.7206L81.1905 28.9513H80.2822L82.6685 22.5168H83.6593L86.0373 28.9545H85.1274L84.6006 27.5115ZM84.3513 26.8232L83.1573 23.5533L81.965 26.8232H84.3513Z" fill="#AE8554"/>
<path d="M94.982 28.9513L93.4099 26.3033H92.3679V28.9513H91.5059V22.473H93.6378C94.073 22.4602 94.5053 22.5461 94.9011 22.7241C95.2219 22.8697 95.4911 23.106 95.674 23.4027C95.8471 23.698 95.9356 24.0338 95.9299 24.3744C95.9364 24.7993 95.7981 25.2143 95.5369 25.5534C95.2421 25.9138 94.8224 26.1553 94.3578 26.232L96.0092 28.9448L94.982 28.9513ZM92.3679 25.6247H93.6378C94.1052 25.6247 94.4553 25.5129 94.6881 25.2862C94.807 25.1671 94.8996 25.0252 94.9601 24.8695C95.0206 24.7137 95.0478 24.5474 95.0398 24.3809C95.0501 24.2165 95.0244 24.0519 94.9646 23.898C94.9048 23.7441 94.8122 23.6045 94.693 23.4885C94.4641 23.2725 94.1123 23.1673 93.6378 23.1727H92.3679V25.6247Z" fill="#AE8554"/>
<path d="M99.0739 22.4763V28.9545H98.2119V22.4763H99.0739Z" fill="#AE8554"/>
<path d="M101.602 24.0051C101.881 23.5113 102.292 23.1015 102.791 22.8196C103.299 22.5329 103.876 22.3852 104.462 22.392C105.128 22.3777 105.784 22.5557 106.348 22.9038C106.891 23.2511 107.303 23.763 107.522 24.3614H106.49C106.324 23.9903 106.048 23.6763 105.699 23.4593C105.327 23.2383 104.898 23.126 104.462 23.1354C104.027 23.1313 103.598 23.2432 103.222 23.4593C102.854 23.672 102.555 23.9832 102.36 24.3566C102.155 24.7803 102.048 25.2437 102.048 25.7129C102.048 26.1822 102.155 26.6456 102.36 27.0693C102.555 27.4422 102.854 27.7529 103.222 27.9649C103.599 28.1782 104.027 28.2874 104.462 28.2808C104.896 28.293 105.325 28.1853 105.699 27.9698C106.049 27.7556 106.325 27.4429 106.49 27.0726H107.522C107.299 27.6632 106.888 28.1672 106.348 28.5091C105.783 28.8538 105.128 29.0293 104.462 29.0144C103.877 29.0213 103.3 28.8754 102.791 28.5917C102.293 28.3137 101.882 27.9078 101.602 27.4175C101.316 26.8945 101.167 26.3103 101.167 25.717C101.167 25.1237 101.316 24.5395 101.602 24.0165V24.0051Z" fill="#AE8554"/>
<path d="M113.651 27.5115H110.774L110.244 28.9513H109.334L111.719 22.5168H112.709L115.087 28.9545H114.178L113.651 27.5115ZM113.405 26.8232L112.211 23.5533L111.017 26.8232H113.405Z" fill="#AE8554"/>
</g>
<defs>
<linearGradient id="paint0_linear_328_1310" x1="19.1591" y1="-6.25898e-06" x2="19.1591" y2="31" gradientUnits="userSpaceOnUse">
<stop stop-color="#FF7762"/>
<stop offset="1" stop-color="#E8A827"/>
</linearGradient>
<clipPath id="clip0_328_1310">
<rect width="164" height="31" fill="white"/>
</clipPath>
</defs>
</svg>
