<svg width="11" height="13" viewBox="0 0 11 13" fill="none" xmlns="http://www.w3.org/2000/svg">
<path d="M5.30603 10.3619C5.09732 10.6209 4.72411 10.6209 4.4933 10.3619L2.92188 8.73691C2.69353 8.52109 2.69353 8.13516 2.92188 7.89648C3.15268 7.66035 3.52589 7.66035 3.7346 7.89648L4.91071 9.09238L7.2433 6.67773C7.47411 6.4416 7.84732 6.4416 8.05603 6.67773C8.30647 6.91641 8.30647 7.30234 8.05603 7.51816L5.30603 10.3619ZM3.14286 0C3.46942 0 3.73214 0.272949 3.73214 0.609375V1.625H7.26786V0.609375C7.26786 0.272949 7.53058 0 7.85714 0C8.18371 0 8.44643 0.272949 8.44643 0.609375V1.625H9.42857C10.2953 1.625 11 2.35244 11 3.25V11.375C11 12.2713 10.2953 13 9.42857 13H1.57143C0.70346 13 0 12.2713 0 11.375V3.25C0 2.35244 0.70346 1.625 1.57143 1.625H2.55357V0.609375C2.55357 0.272949 2.81629 0 3.14286 0ZM9.82143 4.875H1.17857V11.375C1.17857 11.5984 1.35438 11.7812 1.57143 11.7812H9.42857C9.64464 11.7812 9.82143 11.5984 9.82143 11.375V4.875Z" fill="white"/>
</svg>
