<svg width="16" height="14" viewBox="0 0 16 14" fill="none" xmlns="http://www.w3.org/2000/svg">
<path d="M0 1.75C0 0.784766 0.797222 0 1.77778 0H6.22222V3.5C6.22222 3.98398 6.61944 4.375 7.11111 4.375H10.6667V5.43047C8.61389 6.00195 7.11111 7.85859 7.11111 10.0625C7.11111 11.6785 7.91945 13.1059 9.15833 13.9809C9.06944 13.9945 8.98056 14 8.88889 14H1.77778C0.797222 14 0 13.2152 0 12.25V1.75ZM10.6667 3.5H7.11111V0L10.6667 3.5ZM12 6.125C13.0609 6.125 14.0783 6.53984 14.8284 7.27827C15.5786 8.01669 16 9.01821 16 10.0625C16 11.1068 15.5786 12.1083 14.8284 12.8467C14.0783 13.5852 13.0609 14 12 14C10.9391 14 9.92172 13.5852 9.17157 12.8467C8.42143 12.1083 8 11.1068 8 10.0625C8 9.01821 8.42143 8.01669 9.17157 7.27827C9.92172 6.53984 10.9391 6.125 12 6.125ZM12.4444 8.3125C12.4444 8.07187 12.2444 7.875 12 7.875C11.7556 7.875 11.5556 8.07187 11.5556 8.3125V9.625H10.2222C9.97778 9.625 9.77778 9.82187 9.77778 10.0625C9.77778 10.3031 9.97778 10.5 10.2222 10.5H11.5556V11.8125C11.5556 12.0531 11.7556 12.25 12 12.25C12.2444 12.25 12.4444 12.0531 12.4444 11.8125V10.5H13.7778C14.0222 10.5 14.2222 10.3031 14.2222 10.0625C14.2222 9.82187 14.0222 9.625 13.7778 9.625H12.4444V8.3125Z" fill="#0F172A"/>
</svg>
