<svg width="14" height="13" viewBox="0 0 14 13" fill="none" xmlns="http://www.w3.org/2000/svg">
<path d="M7 6.5C5.9 6.5 5 7.33571 5 8.35714C5 9.37857 5.9 10.2143 7 10.2143C8.1 10.2143 9 9.37857 9 8.35714C9 7.33571 8.1 6.5 7 6.5ZM13.5344 2.81763L10.9125 0.383036C10.6594 0.14683 10.275 0 9.87813 0H2C0.895313 0 0 0.831362 0 1.85714V11.1429C0 12.1686 0.895313 13 2 13H12C13.1047 13 14 12.1686 14 11.1429V3.82746C14 3.45893 13.8406 3.10201 13.5344 2.81763ZM4 1.39286H8.5V3.71429H4V1.39286ZM12.5 11.1429C12.5 11.3993 12.2761 11.6071 12 11.6071H2C1.72388 11.6071 1.5 11.3993 1.5 11.1429V1.85714C1.5 1.60068 1.72388 1.39286 2 1.39286H2.5V4.41071C2.5 4.7952 2.83594 5.10714 3.25 5.10714H9.25C9.66562 5.10714 10 4.79665 10 4.41071V1.50545L12.4453 3.77609C12.4812 3.80714 12.5 3.85357 12.5 3.8971V11.1429Z" fill="white"/>
</svg>
