<svg width="16" height="13" viewBox="0 0 16 13" fill="none" xmlns="http://www.w3.org/2000/svg">
<path d="M2.4 3.25C2.4 2.38805 2.73714 1.5614 3.33726 0.951903C3.93737 0.34241 4.75131 0 5.6 0C6.44869 0 7.26263 0.34241 7.86274 0.951903C8.46286 1.5614 8.8 2.38805 8.8 3.25C8.8 4.11195 8.46286 4.9386 7.86274 5.5481C7.26263 6.15759 6.44869 6.5 5.6 6.5C4.75131 6.5 3.93737 6.15759 3.33726 5.5481C2.73714 4.9386 2.4 4.11195 2.4 3.25ZM0 12.2459C0 9.74492 1.995 7.71875 4.4575 7.71875H6.7425C9.205 7.71875 11.2 9.74492 11.2 12.2459C11.2 12.6623 10.8675 13 10.4575 13H0.7425C0.3325 13 0 12.6623 0 12.2459ZM12.6 7.92188V6.29688H11C10.6675 6.29688 10.4 6.0252 10.4 5.6875C10.4 5.3498 10.6675 5.07812 11 5.07812H12.6V3.45312C12.6 3.11543 12.8675 2.84375 13.2 2.84375C13.5325 2.84375 13.8 3.11543 13.8 3.45312V5.07812H15.4C15.7325 5.07812 16 5.3498 16 5.6875C16 6.0252 15.7325 6.29688 15.4 6.29688H13.8V7.92188C13.8 8.25957 13.5325 8.53125 13.2 8.53125C12.8675 8.53125 12.6 8.25957 12.6 7.92188Z" fill="white"/>
</svg>
