<svg width="15" height="13" viewBox="0 0 15 13" fill="none" xmlns="http://www.w3.org/2000/svg">
<path d="M7.2772 3.30759C7.4467 3.1439 7.51354 2.88667 7.42521 2.65802C7.37031 2.52031 7.31062 2.3852 7.24378 2.25529L7.16977 2.11499C7.09816 1.98507 7.01938 1.85776 6.93582 1.73564C6.79975 1.53817 6.56102 1.47321 6.34617 1.55116L5.67296 1.7928C5.41752 1.56415 5.12389 1.37708 4.80877 1.24976L4.66315 0.496268C4.61779 0.25463 4.44591 0.0623583 4.2215 0.0337774C4.05917 0.0103931 3.89684 0 3.73211 0C3.56739 0 3.40506 0.010393 3.24511 0.0311791C3.02071 0.05976 2.84883 0.25463 2.80347 0.49367L2.65785 1.24976C2.34034 1.37968 2.04909 1.56415 1.79366 1.7928L1.11806 1.55376C0.903207 1.47581 0.664481 1.54077 0.528407 1.73824C0.444852 1.86036 0.366073 1.98767 0.292067 2.11758L0.220449 2.25529C0.153606 2.3852 0.0939245 2.52031 0.0390175 2.66062C-0.0493113 2.88667 0.0175321 3.1439 0.187028 3.31019L0.717 3.82464C0.69074 3.99873 0.676417 4.1806 0.676417 4.36508C0.676417 4.54956 0.69074 4.73144 0.717 4.90812L0.187028 5.42257C0.0175321 5.58626 -0.0493113 5.84349 0.0390175 6.07214C0.0939245 6.20985 0.153606 6.34496 0.220449 6.47747L0.292067 6.61258C0.363685 6.74509 0.442465 6.86981 0.528407 6.99192C0.664481 7.18939 0.903207 7.25435 1.11806 7.1764L1.79127 6.93476C2.04671 7.16341 2.34034 7.35048 2.65546 7.4778L2.80108 8.23389C2.84644 8.47553 3.01832 8.6678 3.24273 8.69638C3.40267 8.71717 3.56501 8.72756 3.72973 8.72756C3.89445 8.72756 4.05678 8.71717 4.21673 8.69638C4.44113 8.6678 4.61301 8.47293 4.65837 8.23389L4.804 7.4778C5.1215 7.34789 5.41275 7.16341 5.66819 6.93476L6.34139 7.1764C6.55625 7.25435 6.79497 7.18939 6.93105 6.99192C7.0146 6.86981 7.09338 6.74509 7.165 6.61258L7.23901 6.47227C7.30585 6.34236 7.36553 6.20725 7.42044 6.06954C7.50877 5.84349 7.44192 5.58626 7.27243 5.41998L6.74245 4.90552C6.76871 4.72884 6.78304 4.54696 6.78304 4.36248C6.78304 4.17801 6.76871 3.99613 6.74245 3.81945L7.27243 3.30499L7.2772 3.30759ZM4.878 4.36508C4.878 5.05362 4.36474 5.61225 3.73211 5.61225C3.09949 5.61225 2.58623 5.05362 2.58623 4.36508C2.58623 3.67654 3.09949 3.11791 3.73211 3.11791C4.36474 3.11791 4.878 3.67654 4.878 4.36508ZM11.961 12.7964C12.1114 12.9809 12.3478 13.0537 12.5578 12.9575C12.6844 12.8978 12.8085 12.8328 12.9279 12.7601L13.0568 12.6795C13.1761 12.6016 13.2931 12.5158 13.4053 12.4249C13.5867 12.2768 13.6464 12.017 13.5748 11.7831L13.3528 11.0504C13.5629 10.7724 13.7348 10.4528 13.8517 10.1098L14.5464 9.95134C14.7684 9.90198 14.9451 9.7149 14.9714 9.47067C14.9905 9.29658 15 9.1199 15 8.94062C15 8.76134 14.9905 8.58466 14.9714 8.41057C14.9451 8.16634 14.766 7.97926 14.5464 7.9299L13.8517 7.7688C13.7324 7.42323 13.5629 7.10625 13.3528 6.82823L13.5748 6.09552C13.6464 5.86168 13.5867 5.60185 13.4053 5.45375C13.2931 5.36281 13.1761 5.27707 13.0568 5.19652L12.9302 5.11858C12.8109 5.04583 12.6867 4.98087 12.5578 4.92111C12.3501 4.82497 12.1138 4.89772 11.961 5.0822L11.4883 5.65902C11.326 5.63043 11.1589 5.61484 10.9894 5.61484C10.8199 5.61484 10.6528 5.63043 10.4905 5.65902L10.0178 5.0822C9.86738 4.89772 9.63104 4.82497 9.42096 4.92111C9.29444 4.98087 9.1703 5.04583 9.04855 5.11858L8.92441 5.19652C8.80266 5.27447 8.68807 5.36021 8.57587 5.45375C8.39444 5.60185 8.33476 5.86168 8.40638 6.09552L8.62839 6.82823C8.41831 7.10625 8.24643 7.42583 8.12945 7.7688L7.43476 7.9247C7.21275 7.97407 7.03609 8.16114 7.00983 8.40538C6.99073 8.57946 6.98118 8.75614 6.98118 8.93542C6.98118 9.1147 6.99073 9.29139 7.00983 9.46547C7.03609 9.70971 7.21513 9.89678 7.43476 9.94615L8.12945 10.1046C8.24882 10.4502 8.41831 10.7672 8.62839 11.0452L8.40638 11.7779C8.33476 12.0118 8.39444 12.2716 8.57587 12.4197C8.68807 12.5106 8.80266 12.5964 8.92441 12.6743L9.05333 12.7549C9.17269 12.8276 9.29683 12.8926 9.42335 12.9523C9.63104 13.0485 9.86738 12.9757 10.0202 12.7912L10.4928 12.2144C10.6552 12.243 10.8223 12.2586 10.9918 12.2586C11.1613 12.2586 11.3284 12.243 11.4907 12.2144L11.9634 12.7912L11.961 12.7964ZM10.9894 10.1852C10.3568 10.1852 9.84351 9.62656 9.84351 8.93802C9.84351 8.24948 10.3568 7.69086 10.9894 7.69086C11.622 7.69086 12.1353 8.24948 12.1353 8.93802C12.1353 9.62656 11.622 10.1852 10.9894 10.1852Z" fill="white"/>
</svg>
