<?xml version="1.0" encoding="iso-8859-1"?>
<!-- Generator: Adobe Illustrator 18.0.0, SVG Export Plug-In . SVG Version: 6.00 Build 0)  -->
<!DOCTYPE svg PUBLIC "-//W3C//DTD SVG 1.1//EN" "http://www.w3.org/Graphics/SVG/1.1/DTD/svg11.dtd">
<svg version="1.1" id="Capa_1" xmlns="http://www.w3.org/2000/svg" xmlns:xlink="http://www.w3.org/1999/xlink" x="0px" y="0px"
	 viewBox="0 0 59.019 59.019" style="enable-background:new 0 0 59.019 59.019;fill:#fff;" xml:space="preserve">
<g>
	<path d="M58.963,44.119c-0.116-0.367-0.434-0.634-0.814-0.688l-7.777-1.089l-3.472-6.78c-0.342-0.668-1.438-0.668-1.779,0
		l-3.472,6.78l-7.777,1.089c-0.381,0.054-0.698,0.32-0.814,0.688s-0.012,0.768,0.269,1.031l5.605,5.267l-1.321,7.427
		c-0.066,0.373,0.084,0.752,0.388,0.978c0.305,0.227,0.711,0.262,1.049,0.089l6.964-3.528l6.964,3.528
		c0.143,0.073,0.298,0.108,0.452,0.108c0.211,0,0.421-0.066,0.597-0.197c0.304-0.226,0.454-0.604,0.388-0.978l-1.321-7.427
		l5.605-5.267C58.974,44.887,59.079,44.486,58.963,44.119z M51.325,49.33c-0.246,0.231-0.359,0.571-0.3,0.903l1.064,5.987
		l-5.628-2.852c-0.143-0.072-0.297-0.108-0.452-0.108s-0.31,0.036-0.452,0.108l-5.628,2.852l1.064-5.987
		c0.06-0.332-0.054-0.672-0.3-0.903l-4.479-4.207l6.225-0.872c0.322-0.045,0.603-0.244,0.751-0.534l2.818-5.504l2.818,5.504
		c0.148,0.29,0.429,0.489,0.751,0.534l6.225,0.872L51.325,49.33z"/>
	<path d="M52.01,5c0-0.552-0.448-1-1-1h-5V1c0-0.553-0.448-1-1-1h-7c-0.552,0-1,0.447-1,1v3h-22V1c0-0.553-0.448-1-1-1h-7
		c-0.552,0-1,0.447-1,1v3h-5c-0.552,0-1,0.448-1,1v9h52V5z M13.01,5v3h-5V5V2h5V5z M44.01,5v3h-5V5V2h5V5z"/>
	<path d="M26.437,42.017c0.116-0.367,0.434-0.634,0.814-0.688l12.437-1.741L44.597,30h-4.102H37.01v-8h8v7.195l0.11-0.216
		c0.342-0.668,1.438-0.668,1.779,0l5.11,9.981v-8.782V17c0-0.553-0.448-1-1-1h-50c-0.552,0-1,0.447-1,1v39c0,0.553,0.448,1,1,1
		h33.703l0.98-5.509l-8.986-8.443C26.426,42.784,26.321,42.384,26.437,42.017z M27.01,22h7h1v8h-8V22z M15.01,50h-8v-8h8V50z
		 M15.01,40h-8v-8h8V40z M15.01,30h-8v-8h8V30z M25.01,50h-7h-1v-8h8V50z M25.01,40h-8v-8h8V40z M25.01,30h-8v-8h1h7V30z"/>
</g>
<g>
</g>
<g>
</g>
<g>
</g>
<g>
</g>
<g>
</g>
<g>
</g>
<g>
</g>
<g>
</g>
<g>
</g>
<g>
</g>
<g>
</g>
<g>
</g>
<g>
</g>
<g>
</g>
<g>
</g>
</svg>
