<?xml version="1.0" encoding="utf-8"?>
<!-- Generator: Adobe Illustrator 22.0.1, SVG Export Plug-In . SVG Version: 6.00 Build 0)  -->
<svg version="1.2" baseProfile="tiny" id="Layer_1" xmlns="http://www.w3.org/2000/svg" xmlns:xlink="http://www.w3.org/1999/xlink"
	 x="0px" y="0px" viewBox="0 0 49.9 35.1" xml:space="preserve">
<g>
	<path fill="#FFFFFF" d="M27,21.1l-12.6-1.3l0-2.7V15c0-0.1,0-0.2,0-0.3c0,0,0-0.1,0-0.1c0-0.1-0.1-0.2-0.1-0.2c0,0,0,0,0-0.1
		C14.1,14.1,14,14,13.9,14c0,0,0,0,0,0c-0.1-0.1-0.2-0.2-0.3-0.2c-0.5-0.2-1-0.2-1.5,0.1L0.6,23.2C0.2,23.4,0,23.9,0,24.3
		c0,0.4,0.2,0.9,0.6,1.1l11.6,9.4c0.3,0.2,0.6,0.3,0.9,0.3h0c0.1,0,0.2,0,0.3,0c0.1,0,0.2-0.1,0.3-0.1c0.5-0.2,0.8-0.7,0.8-1.3
		l0-4.8L27,27.6c1.8,0,3.3-1.5,3.3-3.3C30.3,22.5,28.8,21.1,27,21.1z"/>
	<path fill="#FFFFFF" d="M49.3,9.6L37.8,0.3C37.5,0.1,37.2,0,36.9,0h0c-0.1,0-0.2,0-0.3,0c-0.1,0-0.2,0.1-0.3,0.1
		c-0.5,0.2-0.8,0.7-0.8,1.2v4.8L22.9,7.5c-1.8,0-3.3,1.5-3.3,3.3c0,1.8,1.5,3.3,3.3,3.3l12.6,1.3l0,2.7v2.1c0,0.1,0,0.2,0,0.3
		c0,0,0,0.1,0,0.1c0,0.1,0.1,0.2,0.1,0.2c0,0,0,0,0,0.1c0.1,0.1,0.1,0.2,0.2,0.2c0,0,0,0,0,0c0.1,0.1,0.2,0.2,0.3,0.2
		c0.5,0.2,1,0.2,1.5-0.1l11.6-9.4c0.4-0.3,0.6-0.7,0.6-1.1C49.9,10.3,49.7,9.9,49.3,9.6z"/>
</g>
</svg>
