<?xml version="1.0" encoding="utf-8"?>
<!-- Generator: Adobe Illustrator 18.1.1, SVG Export Plug-In . SVG Version: 6.00 Build 0)  -->
<svg version="1.1" id="Layer_1" xmlns="http://www.w3.org/2000/svg" xmlns:xlink="http://www.w3.org/1999/xlink" x="0px" y="0px"
	 viewBox="0 0 60 60" enable-background="new 0 0 60 60" xml:space="preserve">
<g>
	<defs>
		<rect id="SVGID_1_" width="60" height="60"/>
	</defs>
	<clipPath id="SVGID_2_">
		<use xlink:href="#SVGID_1_"  overflow="visible"/>
	</clipPath>
	<path clip-path="url(#SVGID_2_)" fill="#2E6EB2" d="M9,59c0-0.5,0.4-1,1-1c0.6,0,1,0.4,1,1c0,0.5-0.4,1-1,1h0C9.5,60,9,59.6,9,59
		 M13,58.9c0-0.5,0.4-1,0.9-1.1c0.6,0,1,0.4,1.1,0.9c0,0.5-0.4,1-0.9,1.1H14C13.5,59.8,13.1,59.4,13,58.9 M17,58.6
		c0-0.6,0.4-1,0.9-1.1c0.6,0,1,0.4,1.1,0.9c0.1,0.5-0.4,1-0.9,1.1H18C17.5,59.5,17.1,59.1,17,58.6 M21,58.2c-0.1-0.5,0.3-1,0.9-1.1
		c0.5-0.1,1,0.3,1.1,0.9c0.1,0.6-0.3,1-0.9,1.1c0,0-0.1,0-0.1,0C21.5,59.1,21.1,58.7,21,58.2 M25,57.8c-0.1-0.6,0.3-1.1,0.8-1.1
		c0.5-0.1,1,0.3,1.1,0.9c0.1,0.5-0.3,1.1-0.9,1.1v0c-0.1,0-0.1,0-0.1,0C25.5,58.6,25.1,58.3,25,57.8 M29,57.2
		c-0.1-0.5,0.3-1.1,0.8-1.2c0.5-0.1,1.1,0.3,1.2,0.8c0.1,0.5-0.3,1.1-0.8,1.1c-0.1,0-0.1,0-0.2,0C29.5,58,29.1,57.7,29,57.2
		 M32.9,56.4c-0.1-0.5,0.2-1.1,0.8-1.2c0.5-0.1,1.1,0.2,1.2,0.8c0.1,0.5-0.2,1.1-0.8,1.2c-0.1,0-0.2,0-0.2,0
		C33.4,57.2,33,56.9,32.9,56.4 M36.8,55.5c-0.2-0.5,0.1-1.1,0.7-1.3c0.5-0.2,1.1,0.1,1.3,0.7c0.2,0.5-0.1,1.1-0.7,1.3
		c-0.1,0-0.2,0-0.3,0C37.3,56.2,36.9,55.9,36.8,55.5 M40.6,54.2c-0.2-0.5,0-1.1,0.5-1.3c0.5-0.2,1.1,0,1.3,0.5
		c0.2,0.5,0,1.1-0.5,1.3c-0.1,0.1-0.3,0.1-0.4,0.1C41.1,54.8,40.8,54.6,40.6,54.2 M44.2,52.4c-0.4-0.4-0.3-1.1,0.1-1.4
		c0.4-0.3,1.1-0.3,1.4,0.1c0.4,0.4,0.3,1.1-0.1,1.4c-0.2,0.2-0.4,0.2-0.6,0.2C44.7,52.8,44.4,52.6,44.2,52.4 M46.8,49.5
		c-0.5-0.1-0.9-0.6-0.9-1.1c0.1-0.5,0.6-0.9,1.1-0.9c0.5,0.1,0.9,0.6,0.9,1.1v0c-0.1,0.5-0.5,0.9-1,0.9
		C46.9,49.5,46.9,49.5,46.8,49.5 M45.2,45.2L45.2,45.2c-0.3-0.5-0.2-1.1,0.3-1.4c0.5-0.3,1.1-0.2,1.4,0.3h0c0.3,0.5,0.2,1.1-0.3,1.4
		c-0.2,0.1-0.4,0.2-0.5,0.2C45.7,45.7,45.4,45.5,45.2,45.2 M42.6,43c-0.5-0.3-0.7-0.9-0.4-1.4c0.3-0.5,0.9-0.7,1.3-0.4
		c0.5,0.3,0.7,0.8,0.4,1.3c-0.2,0.3-0.5,0.5-0.9,0.5C42.9,43.1,42.7,43.1,42.6,43 M39,41.6c-0.5-0.2-0.8-0.7-0.7-1.3
		c0.2-0.5,0.7-0.8,1.3-0.6h0c0.5,0.2,0.8,0.7,0.7,1.3c-0.1,0.4-0.5,0.7-1,0.7C39.2,41.7,39.1,41.7,39,41.6 M35.2,40.5
		c-0.5-0.2-0.8-0.7-0.7-1.3c0.2-0.5,0.7-0.8,1.2-0.7c0.5,0.2,0.8,0.7,0.7,1.3c-0.1,0.4-0.5,0.7-1,0.7C35.4,40.5,35.3,40.5,35.2,40.5
		 M31.3,39c-0.5-0.2-0.7-0.8-0.5-1.3c0.3-0.5,0.9-0.7,1.3-0.4c0.5,0.2,0.7,0.8,0.5,1.3c-0.2,0.4-0.5,0.6-0.9,0.6
		C31.6,39.1,31.4,39.1,31.3,39 M27.8,36.2c-0.3-0.5-0.1-1.1,0.3-1.4c0.5-0.3,1.1-0.1,1.4,0.3c0.3,0.5,0.1,1.1-0.3,1.4
		c-0.2,0.1-0.3,0.1-0.5,0.1C28.4,36.6,28,36.5,27.8,36.2 M27.9,32.8c-0.5-0.1-0.9-0.7-0.7-1.2c0.1-0.5,0.7-0.9,1.2-0.7
		c0.5,0.1,0.9,0.7,0.7,1.2c-0.1,0.5-0.5,0.8-1,0.8C28.1,32.8,28,32.8,27.9,32.8 M29.7,29.3c-0.3-0.5-0.1-1.1,0.3-1.4
		c0.5-0.3,1.1-0.1,1.4,0.3c0.3,0.5,0.1,1.1-0.3,1.4c-0.2,0.1-0.3,0.2-0.5,0.2C30.2,29.8,29.9,29.6,29.7,29.3 M33.3,27.5
		c-0.1-0.5,0.2-1.1,0.7-1.2c0.5-0.1,1.1,0.2,1.2,0.7c0.1,0.5-0.2,1.1-0.7,1.2c-0.1,0-0.2,0-0.2,0C33.8,28.3,33.4,28,33.3,27.5
		 M37.2,26.8c-0.1-0.5,0.4-1,0.9-1.1c0.5,0,1,0.4,1.1,0.9s-0.3,1-0.9,1.1c0,0-0.1,0-0.1,0C37.7,27.7,37.3,27.3,37.2,26.8 M46.2,27.7
		c-0.6,0-1-0.5-0.9-1.1c0-0.5,0.5-1,1.1-0.9c0.5,0,1,0.5,0.9,1.1C47.2,27.2,46.7,27.7,46.2,27.7L46.2,27.7z M41.2,26.5
		c0-0.5,0.4-1,1-1c0.6,0,1,0.5,1,1c0,0.6-0.5,1-1,1C41.7,27.5,41.2,27.1,41.2,26.5"/>
	<path clip-path="url(#SVGID_2_)" fill="#2E6EB2" d="M10,60c-0.3,0-0.5-0.1-0.7-0.3C8.9,59.3,0,50.3,0,42c0-5.5,4.5-10,10-10
		s10,4.5,10,10c0,8.3-8.9,17.3-9.3,17.7C10.5,59.9,10.3,60,10,60 M10,34c-4.4,0-8,3.6-8,8c0,6.2,5.9,13.3,8,15.5
		c2.1-2.3,8-9.3,8-15.5C18,37.6,14.4,34,10,34 M10,46c-2.2,0-4-1.8-4-4s1.8-4,4-4s4,1.8,4,4S12.2,46,10,46 M10,40c-1.1,0-2,0.9-2,2
		c0,1.1,0.9,2,2,2s2-0.9,2-2C12,40.9,11.1,40,10,40"/>
	<path clip-path="url(#SVGID_2_)" fill="#2E6EB2" d="M50,28c-0.3,0-0.5-0.1-0.7-0.3C48.9,27.3,40,18.3,40,10c0-5.5,4.5-10,10-10
		s10,4.5,10,10c0,8.3-8.9,17.3-9.3,17.7C50.5,27.9,50.3,28,50,28 M50,2c-4.4,0-8,3.6-8,8c0,6.2,5.9,13.3,8,15.5
		c2.1-2.3,8-9.3,8-15.5C58,5.6,54.4,2,50,2 M50,14c-2.2,0-4-1.8-4-4c0-2.2,1.8-4,4-4c2.2,0,4,1.8,4,4C54,12.2,52.2,14,50,14 M50,8
		c-1.1,0-2,0.9-2,2c0,1.1,0.9,2,2,2c1.1,0,2-0.9,2-2C52,8.9,51.1,8,50,8"/>
</g>
</svg>
