<?xml version="1.0" encoding="utf-8"?>
<!-- Generator: Adobe Illustrator 18.1.1, SVG Export Plug-In . SVG Version: 6.00 Build 0)  -->
<svg version="1.1" id="Layer_1" xmlns="http://www.w3.org/2000/svg" xmlns:xlink="http://www.w3.org/1999/xlink" x="0px" y="0px"
	 viewBox="0 0 56 55.9" enable-background="new 0 0 56 55.9" xml:space="preserve">
<g>
	<defs>
		<rect id="SVGID_1_" y="0" width="56" height="55.9"/>
	</defs>
	<clipPath id="SVGID_2_">
		<use xlink:href="#SVGID_1_"  overflow="visible"/>
	</clipPath>
	<path clip-path="url(#SVGID_2_)" fill="#2E6EB2" d="M50,13h-7c-0.6,0-1-0.4-1-1c0-0.6,0.4-1,1-1h6V4.9c0-0.6,0.4-1,1-1
		c0.6,0,1,0.4,1,1V12C51,12.6,50.6,13,50,13"/>
	<path clip-path="url(#SVGID_2_)" fill="#2E6EB2" d="M1,29c-0.6,0-1-0.4-1-1C0,12.6,12.6,0,28,0c8.9,0,17.1,4.1,22.4,11.3
		c0.3,0.4,0.2,1.1-0.2,1.4c-0.4,0.3-1.1,0.2-1.4-0.2C43.9,5.8,36.3,2,28,2C13.7,2,2,13.7,2,28C2,28.6,1.6,29,1,29"/>
	<path clip-path="url(#SVGID_2_)" fill="#2E6EB2" d="M1,29c-0.3,0-0.5-0.1-0.7-0.3c-0.1-0.1-0.2-0.2-0.2-0.3C0,28.3,0,28.1,0,28
		c0-0.3,0.1-0.5,0.3-0.7c0.4-0.4,1-0.4,1.4,0C1.9,27.5,2,27.7,2,28c0,0.1,0,0.3-0.1,0.4c0,0.1-0.1,0.2-0.2,0.3C1.5,28.9,1.3,29,1,29
		"/>
	<path clip-path="url(#SVGID_2_)" fill="#2E6EB2" d="M29,55c0-0.5,0.4-1,0.9-1.1c0.5,0,1,0.4,1.1,0.9c0,0.5-0.4,1-0.9,1.1v0
		c0,0-0.1,0-0.1,0C29.5,55.9,29,55.5,29,55 M25.9,55.9L25.9,55.9c-0.6,0-1-0.5-0.9-1.1c0-0.5,0.5-1,1.1-0.9h0c0.5,0,1,0.5,0.9,1.1
		C26.9,55.5,26.5,55.9,25.9,55.9L25.9,55.9z M33,54.5c-0.1-0.5,0.2-1.1,0.8-1.2c0.5-0.1,1.1,0.2,1.2,0.8c0.1,0.5-0.2,1.1-0.8,1.2
		c-0.1,0-0.1,0-0.2,0C33.5,55.3,33.1,55,33,54.5 M21.7,55.3L21.7,55.3c-0.5-0.1-0.9-0.7-0.8-1.2c0.1-0.5,0.6-0.9,1.2-0.8
		c0.5,0.1,0.9,0.7,0.8,1.2c-0.1,0.5-0.5,0.8-1,0.8C21.9,55.3,21.8,55.3,21.7,55.3 M36.9,53.5c-0.2-0.5,0-1.1,0.6-1.3
		c0.5-0.2,1.1,0.1,1.3,0.6c0.2,0.5,0,1.1-0.6,1.3c-0.1,0-0.3,0.1-0.4,0.1C37.4,54.1,37.1,53.9,36.9,53.5 M17.7,54.1
		c-0.5-0.2-0.8-0.8-0.6-1.3c0.2-0.5,0.8-0.8,1.3-0.6c0.5,0.2,0.8,0.8,0.6,1.3c-0.2,0.4-0.5,0.6-0.9,0.6C18,54.1,17.9,54.1,17.7,54.1
		 M40.6,51.9c-0.3-0.5-0.1-1.1,0.4-1.4c0.5-0.3,1.1-0.1,1.4,0.4c0.3,0.5,0.1,1.1-0.4,1.4c-0.2,0.1-0.3,0.1-0.5,0.1
		C41.1,52.4,40.8,52.2,40.6,51.9 M14,52.2c-0.5-0.3-0.6-0.9-0.4-1.4c0.3-0.5,0.9-0.6,1.4-0.4c0.5,0.3,0.6,0.9,0.4,1.4
		c-0.2,0.3-0.5,0.5-0.9,0.5C14.3,52.4,14.1,52.3,14,52.2 M44,49.7c-0.4-0.4-0.3-1.1,0.2-1.4c0.4-0.4,1.1-0.3,1.4,0.2
		c0.4,0.4,0.3,1.1-0.2,1.4h0c-0.2,0.1-0.4,0.2-0.6,0.2C44.5,50.1,44.2,50,44,49.7 M10.5,49.9L10.5,49.9c-0.4-0.3-0.5-1-0.2-1.4
		c0.3-0.4,1-0.5,1.4-0.2c0.4,0.4,0.5,1,0.2,1.4c-0.2,0.3-0.5,0.4-0.8,0.4C10.9,50.1,10.7,50,10.5,49.9 M47.1,47.1
		c-0.4-0.4-0.4-1,0-1.4c0.4-0.4,1-0.4,1.4-0.1c0.4,0.4,0.4,1,0,1.4c-0.2,0.2-0.5,0.3-0.7,0.3C47.5,47.4,47.3,47.3,47.1,47.1 M7.5,47
		L7.5,47c-0.4-0.4-0.3-1,0.1-1.4c0.4-0.4,1-0.4,1.4,0c0.4,0.4,0.3,1-0.1,1.4c-0.2,0.2-0.4,0.3-0.7,0.3C7.9,47.4,7.7,47.2,7.5,47
		 M49.7,44.1c-0.5-0.3-0.6-0.9-0.3-1.4v0c0.3-0.5,0.9-0.6,1.4-0.3c0.5,0.3,0.6,0.9,0.3,1.4v0c-0.2,0.3-0.5,0.4-0.8,0.4
		C50.1,44.2,49.9,44.2,49.7,44.1 M4.9,43.8L4.9,43.8c-0.3-0.5-0.2-1.1,0.3-1.4c0.5-0.3,1.1-0.2,1.4,0.3c0.3,0.5,0.2,1.1-0.3,1.4
		c-0.2,0.1-0.4,0.2-0.6,0.2C5.4,44.2,5.1,44.1,4.9,43.8 M51.9,40.6c-0.5-0.2-0.7-0.8-0.5-1.3c0.2-0.5,0.8-0.7,1.3-0.5
		c0.5,0.2,0.7,0.8,0.5,1.3c-0.2,0.4-0.5,0.6-0.9,0.6C52.2,40.7,52,40.7,51.9,40.6 M2.8,40.1L2.8,40.1c-0.3-0.5,0-1.1,0.5-1.3
		c0.5-0.2,1.1,0,1.3,0.5c0.2,0.5,0,1.1-0.5,1.3c-0.1,0.1-0.3,0.1-0.4,0.1C3.3,40.7,2.9,40.5,2.8,40.1 M53.5,37
		c-0.5-0.2-0.8-0.7-0.7-1.3c0.2-0.5,0.7-0.8,1.3-0.7c0.5,0.2,0.8,0.7,0.7,1.3c-0.1,0.4-0.5,0.7-1,0.7C53.7,37,53.6,37,53.5,37
		 M1.2,36.2L1.2,36.2c-0.2-0.5,0.1-1.1,0.7-1.3c0.5-0.2,1.1,0.1,1.2,0.7v0c0.2,0.5-0.1,1.1-0.7,1.2c-0.1,0-0.2,0-0.3,0
		C1.8,37,1.4,36.7,1.2,36.2 M54.5,33.1c-0.6-0.1-0.9-0.6-0.8-1.1h0c0.1-0.5,0.6-0.9,1.1-0.8c0.6,0.1,0.9,0.6,0.8,1.1h0
		c-0.1,0.5-0.5,0.8-1,0.8C54.6,33.1,54.6,33.1,54.5,33.1 M0.3,32.2L0.3,32.2c-0.1-0.5,0.3-1,0.8-1.1c0.5-0.1,1.1,0.3,1.1,0.8
		c0.1,0.5-0.3,1-0.8,1.1c0,0-0.1,0-0.1,0C0.8,33,0.4,32.7,0.3,32.2"/>
	<path clip-path="url(#SVGID_2_)" fill="#2E6EB2" d="M55,29c-0.3,0-0.5-0.1-0.7-0.3C54.1,28.5,54,28.3,54,28c0-0.1,0-0.3,0.1-0.4
		c0-0.1,0.1-0.2,0.2-0.3c0.2-0.2,0.6-0.3,0.9-0.3c0.1,0,0.1,0,0.2,0.1c0.1,0,0.1,0,0.2,0.1c0.1,0,0.1,0.1,0.2,0.1
		c0.1,0.1,0.2,0.2,0.2,0.3S56,27.9,56,28c0,0.3-0.1,0.5-0.3,0.7C55.5,28.9,55.3,29,55,29"/>
	<path clip-path="url(#SVGID_2_)" fill="#2E6EB2" d="M28,47C17.5,47,9,38.5,9,28S17.5,9,28,9s19,8.5,19,19S38.5,47,28,47 M28,11
		c-9.4,0-17,7.6-17,17s7.6,17,17,17s17-7.6,17-17S37.4,11,28,11"/>
	<path clip-path="url(#SVGID_2_)" fill="#2E6EB2" d="M28,15c-0.1,0-0.1,0-0.2,0c-0.1,0-0.1,0-0.2-0.1c-0.1,0-0.1,0-0.2-0.1
		c0,0-0.1-0.1-0.1-0.1c-0.1-0.1-0.2-0.2-0.2-0.3C27,14.3,27,14.1,27,14c0-0.1,0-0.3,0.1-0.4c0-0.1,0.1-0.2,0.2-0.3
		c0.2-0.2,0.6-0.3,0.9-0.3c0.1,0,0.1,0,0.2,0.1c0.1,0,0.1,0,0.2,0.1c0.1,0,0.1,0.1,0.2,0.1c0.1,0.1,0.2,0.2,0.2,0.3
		C29,13.7,29,13.9,29,14c0,0.3-0.1,0.5-0.3,0.7c0,0-0.1,0.1-0.2,0.1c0,0-0.1,0.1-0.2,0.1c-0.1,0-0.1,0-0.2,0.1
		C28.1,15,28.1,15,28,15"/>
	<path clip-path="url(#SVGID_2_)" fill="#2E6EB2" d="M28,43c-0.1,0-0.3,0-0.4-0.1c-0.1,0-0.2-0.1-0.3-0.2C27.1,42.5,27,42.3,27,42
		c0-0.1,0-0.3,0.1-0.4c0-0.1,0.1-0.2,0.2-0.3c0.2-0.2,0.6-0.3,0.9-0.3c0.1,0,0.1,0,0.2,0.1c0.1,0,0.1,0.1,0.2,0.1
		c0.1,0,0.1,0.1,0.2,0.1c0.2,0.2,0.3,0.5,0.3,0.7c0,0.3-0.1,0.5-0.3,0.7c-0.1,0.1-0.2,0.2-0.3,0.2S28.1,43,28,43"/>
	<path clip-path="url(#SVGID_2_)" fill="#2E6EB2" d="M42,29c-0.1,0-0.3,0-0.4-0.1c-0.1,0-0.2-0.1-0.3-0.2C41.1,28.5,41,28.3,41,28
		c0-0.1,0-0.1,0-0.2c0-0.1,0-0.1,0.1-0.2c0-0.1,0-0.1,0.1-0.2c0,0,0.1-0.1,0.1-0.1c0.1-0.1,0.2-0.2,0.3-0.2c0.4-0.2,0.8-0.1,1.1,0.2
		c0,0,0.1,0.1,0.1,0.1c0,0.1,0.1,0.1,0.1,0.2c0,0.1,0,0.1,0.1,0.2c0,0.1,0,0.1,0,0.2c0,0.3-0.1,0.5-0.3,0.7
		c-0.1,0.1-0.2,0.2-0.3,0.2C42.3,29,42.1,29,42,29"/>
	<path clip-path="url(#SVGID_2_)" fill="#2E6EB2" d="M14,29c-0.1,0-0.1,0-0.2,0c-0.1,0-0.1,0-0.2-0.1c-0.1,0-0.1,0-0.2-0.1
		c0,0-0.1-0.1-0.1-0.1C13.1,28.5,13,28.3,13,28c0-0.3,0.1-0.5,0.3-0.7c0.4-0.4,1-0.4,1.4,0c0.2,0.2,0.3,0.5,0.3,0.7
		c0,0.3-0.1,0.5-0.3,0.7C14.5,28.9,14.3,29,14,29"/>
	<path clip-path="url(#SVGID_2_)" fill="#2E6EB2" d="M28,27c-0.6,0-1-0.4-1-1v-8c0-0.6,0.4-1,1-1c0.6,0,1,0.4,1,1v8
		C29,26.6,28.6,27,28,27"/>
	<path clip-path="url(#SVGID_2_)" fill="#2E6EB2" d="M36,29h-6c-0.6,0-1-0.4-1-1s0.4-1,1-1h6c0.6,0,1,0.4,1,1S36.6,29,36,29"/>
	<path clip-path="url(#SVGID_2_)" fill="#BDD9F4" d="M28,26c1.1,0,2,0.9,2,2c0,1.1-0.9,2-2,2c-1.1,0-2-0.9-2-2
		C26,26.9,26.9,26,28,26"/>
	<path clip-path="url(#SVGID_2_)" fill="#2E6EB2" d="M28,31c-1.7,0-3-1.3-3-3c0-1.7,1.3-3,3-3c1.7,0,3,1.3,3,3
		C31,29.7,29.7,31,28,31 M28,27c-0.6,0-1,0.4-1,1c0,0.6,0.4,1,1,1c0.6,0,1-0.4,1-1C29,27.4,28.6,27,28,27"/>
</g>
</svg>
