<?xml version="1.0" encoding="utf-8"?>
<!-- Generator: Adobe Illustrator 18.1.1, SVG Export Plug-In . SVG Version: 6.00 Build 0)  -->
<svg version="1.1" id="Layer_1" xmlns="http://www.w3.org/2000/svg" xmlns:xlink="http://www.w3.org/1999/xlink" x="0px" y="0px"
	 viewBox="0 0 58 50" enable-background="new 0 0 58 50" xml:space="preserve">
<g>
	<defs>
		<rect id="SVGID_1_" width="58" height="50"/>
	</defs>
	<clipPath id="SVGID_2_">
		<use xlink:href="#SVGID_1_"  overflow="visible"/>
	</clipPath>
	<path clip-path="url(#SVGID_2_)" fill="#BDD9F4" d="M46.5,11c-0.8-1.3-2.4-2.2-5.5-2.5V8.1c1.1-0.6,1.5-1.9,1.5-3.4
		C42.5,2.7,41,1,39.1,1h-0.1c-1.9,0-3.4,1.7-3.4,3.8c0,1.5,0.4,2.8,1.5,3.4v0.4c-3.2,0.2-4.9,1.2-5.6,2.6V15
		c0.7,0.7,1.1,1.6,1.1,2.7c0,1.3-0.3,2.4-1.1,3v0.8C35.6,22,37,23.8,37,26v5.7c0,0.1,0,0.2,0,0.3h4c0-0.1,0-0.2,0-0.3V26
		c0-2.3,1.4-4,5.5-4.4l0-0.9c-0.7-0.7-1-1.8-1-3c0-1,0.4-2,1-2.7L46.5,11z"/>
	<path clip-path="url(#SVGID_2_)" fill="#BDD9F4" d="M26.5,11c-0.8-1.3-2.4-2.2-5.5-2.5V8.1c1.1-0.6,1.5-1.9,1.5-3.4
		C22.5,2.7,21,1,19.1,1H19c-1.9,0-3.4,1.7-3.4,3.8c0,1.5,0.4,2.8,1.5,3.4v0.4c-3.2,0.2-4.9,1.2-5.6,2.6v3.9c0.6,0.7,1,1.6,1,2.7
		c0,1.2-0.3,2.3-1,3v0.8C15.6,22,17,23.8,17,26v5.7c0,0.1,0,0.2,0,0.3h4c0-0.1,0-0.2,0-0.3V26c0-2.3,1.4-4,5.5-4.4v-0.8
		c-0.8-0.7-1-1.8-1-3c0-1.1,0.4-2,1-2.7L26.5,11z"/>
	<path clip-path="url(#SVGID_2_)" fill="#2E6EB2" d="M31,50h-4c-1.7,0-3-1.3-3-3V26.9c0-0.6,0.4-1,1-1c0.6,0,1,0.4,1,1V47
		c0,0.6,0.4,1,1,1h4c0.6,0,1-0.4,1-1V26.9c0-0.6,0.4-1,1-1c0.6,0,1,0.4,1,1V47C34,48.7,32.7,50,31,50"/>
	<path clip-path="url(#SVGID_2_)" fill="#2E6EB2" d="M29,50c-0.6,0-1-0.4-1-1V36.4c0-0.6,0.4-1,1-1c0.6,0,1,0.4,1,1V49
		C30,49.5,29.6,50,29,50"/>
	<path clip-path="url(#SVGID_2_)" fill="#2E6EB2" d="M33.7,36H33c-0.6,0-1-0.4-1-1s0.4-1,1-1h0.7c0,0,2.3-0.2,2.3-2.2V26
		c0-0.9,0-3.1-5.1-3.5c-0.5,0-0.9-0.5-0.9-1v-0.4c0-0.4,0.2-0.7,0.5-0.9c0.2-0.1,1-0.5,1-2.5c0-1.5-1.1-2.8-2.4-2.8h-0.1
		c-1.3,0-2.4,1.2-2.4,2.8c0,2,0.8,2.4,1,2.5c0.3,0.2,0.5,0.5,0.5,0.9v0.4c0,0.5-0.4,1-0.9,1C22,22.9,22,25.2,22,26v5.7
		c0,2.1,2.3,2.2,2.3,2.2H25c0.6,0,1,0.4,1,1s-0.4,1-1,1h-0.7c-1.3,0-4.3-1.1-4.3-4.2V26c0-2,1-4.5,5.2-5.3c-0.5-0.8-0.7-1.8-0.7-3
		c0-2.6,2-4.8,4.4-4.8h0.1c2.4,0,4.4,2.1,4.4,4.8c0,1.2-0.2,2.3-0.7,3C37,21.6,38,24,38,26v5.7C38,34.9,35.1,36,33.7,36"/>
	<path clip-path="url(#SVGID_2_)" fill="#2E6EB2" d="M11,50H7c-1.7,0-3-1.3-3-3V26.9c0-0.6,0.4-1,1-1s1,0.4,1,1V47c0,0.6,0.4,1,1,1
		h4c0.6,0,1-0.4,1-1V26.9c0-0.6,0.4-1,1-1c0.6,0,1,0.4,1,1V47C14,48.7,12.7,50,11,50"/>
	<path clip-path="url(#SVGID_2_)" fill="#2E6EB2" d="M9,50c-0.6,0-1-0.4-1-1V36.4c0-0.6,0.4-1,1-1c0.6,0,1,0.4,1,1V49
		C10,49.5,9.6,50,9,50"/>
	<path clip-path="url(#SVGID_2_)" fill="#2E6EB2" d="M13.7,36H13c-0.6,0-1-0.4-1-1s0.4-1,1-1h0.7c0,0,2.3-0.2,2.3-2.2V26
		c0-0.9,0-3.1-5.1-3.5c-0.5,0-0.9-0.5-0.9-1v-0.4c0-0.4,0.2-0.7,0.5-0.9c0.2-0.1,1-0.5,1-2.5c0-1.5-1.1-2.8-2.4-2.8H8.9
		c-1.3,0-2.4,1.2-2.4,2.8c0,2,0.8,2.4,1,2.5C7.8,20.4,8,20.8,8,21.1v0.4c0,0.5-0.4,1-0.9,1C2,22.9,2,25.2,2,26v5.7
		C2,33.8,4.3,34,4.3,34H5c0.6,0,1,0.4,1,1s-0.4,1-1,1H4.3C2.9,36,0,34.9,0,31.8V26c0-2,1-4.5,5.2-5.3c-0.5-0.8-0.7-1.8-0.7-3
		c0-2.6,2-4.8,4.4-4.8h0.1c2.4,0,4.4,2.1,4.4,4.8c0,1.2-0.2,2.3-0.7,3C17,21.6,18,24,18,26v5.7C18,34.9,15.1,36,13.7,36"/>
	<path clip-path="url(#SVGID_2_)" fill="#2E6EB2" d="M51,50h-4c-1.7,0-3-1.3-3-3V26.9c0-0.6,0.4-1,1-1c0.6,0,1,0.4,1,1V47
		c0,0.6,0.4,1,1,1h4c0.6,0,1-0.4,1-1V26.9c0-0.6,0.4-1,1-1c0.6,0,1,0.4,1,1V47C54,48.7,52.7,50,51,50"/>
	<path clip-path="url(#SVGID_2_)" fill="#2E6EB2" d="M49,50c-0.6,0-1-0.4-1-1V36.4c0-0.6,0.4-1,1-1c0.6,0,1,0.4,1,1V49
		C50,49.5,49.6,50,49,50"/>
	<path clip-path="url(#SVGID_2_)" fill="#2E6EB2" d="M53.7,36H53c-0.6,0-1-0.4-1-1s0.4-1,1-1h0.7c0,0,2.3-0.2,2.3-2.2V26
		c0-0.9,0-3.1-5.1-3.5c-0.5,0-0.9-0.5-0.9-1v-0.4c0-0.4,0.2-0.7,0.5-0.9c0.2-0.1,1-0.5,1-2.5c0-1.5-1.1-2.8-2.4-2.8h-0.1
		c-1.3,0-2.4,1.2-2.4,2.8c0,2,0.8,2.4,1,2.5c0.3,0.2,0.5,0.5,0.5,0.9v0.4c0,0.5-0.4,1-0.9,1C42,22.9,42,25.2,42,26v5.7
		c0,2.1,2.3,2.2,2.3,2.2H45c0.6,0,1,0.4,1,1s-0.4,1-1,1h-0.7c-1.3,0-4.3-1.1-4.3-4.2V26c0-2,1-4.5,5.2-5.3c-0.5-0.8-0.7-1.8-0.7-3
		c0-2.6,2-4.8,4.4-4.8h0.1c2.4,0,4.4,2.1,4.4,4.8c0,1.2-0.2,2.3-0.7,3C57,21.6,58,24,58,26v5.7C58,34.9,55.1,36,53.7,36"/>
	<path clip-path="url(#SVGID_2_)" fill="#2E6EB2" d="M31.4,12.1c-0.2,0-0.3,0-0.5-0.1c-0.5-0.3-0.7-0.9-0.4-1.4
		c0.8-1.5,2.3-2.4,4.7-2.9c-0.5-0.8-0.7-1.8-0.7-3c0-2.6,2-4.8,4.4-4.8h0.1c2.4,0,4.4,2.1,4.4,4.8c0,1.2-0.2,2.3-0.7,3
		c2.3,0.4,3.8,1.3,4.6,2.8c0.3,0.5,0.1,1.1-0.4,1.4c-0.5,0.3-1.1,0.1-1.4-0.4c-0.6-1.1-2.2-1.8-4.7-2c-0.5,0-0.9-0.5-0.9-1V8.1
		c0-0.4,0.2-0.7,0.5-0.9c0.2-0.1,1-0.5,1-2.5c0-1.5-1.1-2.8-2.4-2.8h-0.1c-1.3,0-2.4,1.2-2.4,2.8c0,2,0.8,2.4,1,2.5
		C37.8,7.4,38,7.8,38,8.1v0.4c0,0.5-0.4,1-0.9,1c-2.6,0.2-4.2,0.9-4.8,2C32.1,11.9,31.8,12.1,31.4,12.1"/>
	<path clip-path="url(#SVGID_2_)" fill="#2E6EB2" d="M26.5,12c-0.3,0-0.7-0.2-0.9-0.5c-0.7-1.1-2.2-1.7-4.7-1.9
		c-0.5,0-0.9-0.5-0.9-1V8.1c0-0.4,0.2-0.7,0.5-0.9c0.2-0.1,1-0.5,1-2.5c0-1.5-1.1-2.8-2.4-2.8h-0.1c-1.3,0-2.4,1.2-2.4,2.8
		c0,2,0.8,2.4,1,2.5C17.8,7.4,18,7.8,18,8.1v0.4c0,0.5-0.4,1-0.9,1c-2.5,0.2-4.1,0.8-4.7,1.9c-0.3,0.5-0.9,0.6-1.4,0.3
		c-0.5-0.3-0.6-0.9-0.4-1.4c0.8-1.4,2.3-2.3,4.6-2.7c-0.5-0.8-0.7-1.8-0.7-3c0-2.6,2-4.8,4.4-4.8h0.1c2.4,0,4.4,2.1,4.4,4.8
		c0,1.2-0.2,2.3-0.7,3c2.2,0.4,3.8,1.3,4.6,2.7c0.3,0.5,0.1,1.1-0.4,1.4C26.8,11.9,26.7,12,26.5,12"/>
</g>
</svg>
