<?xml version="1.0" encoding="utf-8"?>
<!-- Generator: Adobe Illustrator 18.1.1, SVG Export Plug-In . SVG Version: 6.00 Build 0)  -->
<svg version="1.1" id="Layer_1" xmlns="http://www.w3.org/2000/svg" xmlns:xlink="http://www.w3.org/1999/xlink" x="0px" y="0px"
	 viewBox="0 0 60 60" enable-background="new 0 0 60 60" xml:space="preserve">
<path fill="#BDD9F4" d="M28,11.5c-4.2,0-7.5,3.4-7.5,7.5c0,3.5,2.4,6.4,5.6,7.3v-5.1c0-1.4,1.1-2.5,2.5-2.5s2.5,1.1,2.5,2.5v4.7
	c2.6-1.2,4.5-3.8,4.5-6.9C35.5,14.9,32.2,11.5,28,11.5z"/>
<path fill="#2E6EB2" d="M14,20C14,20,14,20,14,20l-4,0c-0.6,0-1-0.5-1-1c0-0.6,0.4-1,1-1l4,0c0.6,0,1,0.5,1,1C15,19.6,14.5,20,14,20
	z"/>
<path fill="#2E6EB2" d="M42,20c-0.5,0-1-0.4-1-1c0-0.6,0.4-1,1-1l4,0c0,0,0,0,0,0c0.5,0,1,0.4,1,1c0,0.6-0.4,1-1,1L42,20
	C42,20,42,20,42,20z"/>
<path fill="#2E6EB2" d="M11.4,26.9c-0.4,0-0.8-0.2-0.9-0.6c-0.2-0.5,0-1.1,0.5-1.3l3.7-1.5c0.5-0.2,1.1,0,1.3,0.5
	c0.2,0.5,0,1.1-0.5,1.3l-3.7,1.5C11.6,26.9,11.5,26.9,11.4,26.9z"/>
<path fill="#2E6EB2" d="M41,14.7c-0.4,0-0.8-0.2-0.9-0.6c-0.2-0.5,0-1.1,0.5-1.3l3.7-1.5c0.5-0.2,1.1,0,1.3,0.5s0,1.1-0.5,1.3
	l-3.7,1.5C41.2,14.6,41.1,14.7,41,14.7z"/>
<path fill="#2E6EB2" d="M15.3,32.7c-0.3,0-0.5-0.1-0.7-0.3c-0.4-0.4-0.4-1,0-1.4l2.8-2.8c0.4-0.4,1-0.4,1.4,0c0.4,0.4,0.4,1,0,1.4
	L16,32.4C15.8,32.6,15.5,32.7,15.3,32.7z"/>
<path fill="#2E6EB2" d="M37.9,10.1c-0.3,0-0.5-0.1-0.7-0.3c-0.4-0.4-0.4-1,0-1.4L40,5.6c0.4-0.4,1-0.4,1.4,0c0.4,0.4,0.4,1,0,1.4
	l-2.8,2.8C38.4,10,38.2,10.1,37.9,10.1z"/>
<path fill="#2E6EB2" d="M28,6c-0.6,0-1-0.4-1-1V1c0-0.6,0.4-1,1-1s1,0.4,1,1v4C29,5.6,28.6,6,28,6z"/>
<path fill="#2E6EB2" d="M18.1,10.1c-0.3,0-0.5-0.1-0.7-0.3L14.6,7c-0.4-0.4-0.4-1,0-1.4c0.4-0.4,1-0.4,1.4,0l2.8,2.8
	c0.4,0.4,0.4,1,0,1.4C18.6,10,18.3,10.1,18.1,10.1z"/>
<path fill="#2E6EB2" d="M15,14.7c-0.1,0-0.3,0-0.4-0.1L11,13c-0.5-0.2-0.7-0.8-0.5-1.3c0.2-0.5,0.8-0.7,1.3-0.5l3.7,1.5
	c0.5,0.2,0.7,0.8,0.5,1.3C15.8,14.4,15.4,14.7,15,14.7z"/>
<path fill="#2E6EB2" d="M44.6,26.9c-0.1,0-0.3,0-0.4-0.1l-3.7-1.5c-0.5-0.2-0.8-0.8-0.5-1.3c0.2-0.5,0.8-0.8,1.3-0.5L45,25
	c0.5,0.2,0.8,0.8,0.5,1.3C45.4,26.7,45,26.9,44.6,26.9z"/>
<path fill="#2E6EB2" d="M22.6,7.1c-0.4,0-0.8-0.2-0.9-0.6l-1.5-3.7c-0.2-0.5,0-1.1,0.5-1.3c0.5-0.2,1.1,0,1.3,0.5l1.5,3.7
	c0.2,0.5,0,1.1-0.5,1.3C22.9,7,22.8,7.1,22.6,7.1z"/>
<path fill="#2E6EB2" d="M33.4,7.1c-0.1,0-0.3,0-0.4-0.1c-0.5-0.2-0.8-0.8-0.5-1.3L34,2c0.2-0.5,0.8-0.8,1.3-0.5
	c0.5,0.2,0.8,0.8,0.5,1.3l-1.5,3.7C34.1,6.8,33.8,7.1,33.4,7.1z"/>
<path fill="#2E6EB2" d="M28.9,53.6c-0.2,0-0.4,0-0.5-0.1c-3.5-2.1-4.9-4.5-6.6-7.3c-1.4-2.4-3-5-6.3-8.2c-0.4-0.4-0.7-1-0.7-1.7
	c0-0.7,0.2-1.3,0.7-1.7c1.7-1.7,4.4-2,6.4-0.6c1,0.6,1.8,1.2,2.5,1.8c0.1-3.8,0.4-10.8,0.7-15.3c0.1-1.9,1.6-3.3,3.5-3.3
	c1.9,0,3.5,1.6,3.5,3.5v6.4h1.1c1.9,0,3.5,1.2,4.2,2.8h1.5c2.5,0,4.5,2,4.5,4.5v5.1c0,0.6-0.4,1-1,1s-1-0.4-1-1v-5.1
	c0-1.4-1.1-2.5-2.5-2.5h-1.1v6.8c0,0.6-0.4,1-1,1s-1-0.4-1-1v-7.1c0-1.4-1.1-2.5-2.5-2.5H32v8.9c0,0.6-0.4,1-1,1s-1-0.4-1-1V20.5
	c0-0.8-0.7-1.5-1.5-1.5c-0.8,0-1.5,0.6-1.5,1.4c-0.5,9.5-0.8,16-0.7,17.3c0,0.4-0.2,0.8-0.6,1c-0.4,0.2-0.8,0.1-1.1-0.2
	c-0.8-0.8-2.2-1.8-3.9-3c-1.2-0.8-2.9-0.6-3.9,0.4c-0.1,0.1-0.1,0.5,0,0.6c3.5,3.4,5.2,6.2,6.7,8.6c1.6,2.6,2.8,4.7,5.9,6.6
	c0.5,0.3,0.6,0.9,0.3,1.4C29.6,53.5,29.2,53.6,28.9,53.6z"/>
<path fill="#2E6EB2" d="M40.9,60h-9.2c-3.3,0-5.9-2.7-5.9-5.9v-2.8c0-0.6,0.4-1,1-1s1,0.4,1,1v2.8c0,2.2,1.8,3.9,3.9,3.9h9.2
	c2.2,0,3.9-1.8,3.9-3.9c0-0.2,0-0.4,0.1-0.5c0,0,2-3.4,2-6.6c0-4.5-0.2-7.4-0.7-9.7c-0.4-1.8-1.2-2.7-2.6-2.7h-1.4c-0.6,0-1-0.4-1-1
	s0.4-1,1-1h1.4c2.3,0,3.9,1.6,4.5,4.3C48.8,39.4,49,42.3,49,47c0,3.3-1.6,6.5-2.1,7.3C46.7,57.5,44.1,60,40.9,60z"/>
<path fill="#2E6EB2" d="M25.4,40.9c-0.6,0-1-0.4-1-1v-2.1c0-0.6,0.4-1,1-1s1,0.4,1,1v2.1C26.4,40.5,25.9,40.9,25.4,40.9z"/>
<path fill="#2E6EB2" d="M44,54.3h-0.4c-0.6,0-1-0.4-1-1s0.4-1,1-1H44c0.5,0,1.9,0,2.5-2.4c0.1-0.5,0.7-0.9,1.2-0.7
	c0.5,0.1,0.9,0.7,0.7,1.2C47.8,53,46.2,54.3,44,54.3z"/>
</svg>
