<svg xmlns="http://www.w3.org/2000/svg" width="16" height="13.142" viewBox="0 0 16 13.142"><defs><style>.a{fill:#fff;}</style></defs><path class="a" d="M15.666,10.491c-.121,0-.529,0-.643.011l-2.318.061a.066.066,0,0,1-.061-.032L9.17,5.327a.574.574,0,0,0-.482-.264H7.842c-.2,0-.268.2-.2.386l1.789,5.1a.07.07,0,0,1-.064.1L5,10.709a.288.288,0,0,1-.236-.111L3.442,8.991a.567.567,0,0,0-.45-.218h-.6a.142.142,0,0,0-.136.189l.711,2.453a.582.582,0,0,1,0,.425l-.711,2.453a.142.142,0,0,0,.136.189h.6a.578.578,0,0,0,.45-.218l1.346-1.632a.292.292,0,0,1,.236-.111l4.346.1a.071.071,0,0,1,.064.1l-1.789,5.1c-.071.186,0,.386.2.386h.846a.569.569,0,0,0,.482-.264l3.478-5.2a.07.07,0,0,1,.061-.032l2.318.061c.118.007.521.011.643.011,1.582,0,2.582-.511,2.582-1.143S17.252,10.491,15.666,10.491Z" transform="translate(-2.248 -5.063)"/></svg>