<svg xmlns="http://www.w3.org/2000/svg" width="18.922" height="14.717" viewBox="0 0 18.922 14.717"><defs><style>.a{fill:#fff;}</style></defs><path class="a" d="M18.922,8.295V8.82a.788.788,0,0,1-.788.788h-.263l-.858,6a1.577,1.577,0,0,1-1.561,1.354H3.47a1.577,1.577,0,0,1-1.561-1.354l-.858-6H.788A.788.788,0,0,1,0,8.82V8.295a.788.788,0,0,1,.788-.788H3L6.509,2.683a1.051,1.051,0,1,1,1.7,1.237L5.6,7.506h7.722L10.713,3.919a1.051,1.051,0,0,1,1.7-1.237l3.508,4.823h2.212A.788.788,0,0,1,18.922,8.295ZM10.25,14.076V10.4a.788.788,0,1,0-1.577,0v3.679a.788.788,0,0,0,1.577,0Zm3.679,0V10.4a.788.788,0,1,0-1.577,0v3.679a.788.788,0,0,0,1.577,0Zm-7.359,0V10.4a.788.788,0,1,0-1.577,0v3.679a.788.788,0,0,0,1.577,0Z" transform="translate(0 -2.25)"/></svg>