<svg xmlns="http://www.w3.org/2000/svg" width="16" height="10.668" viewBox="0 0 16 10.668"><defs><style>.a{fill:#fff;}</style></defs><path class="a" d="M16.387,17.145a2.175,2.175,0,0,1-.911-.2,2.318,2.318,0,0,0-.974-.217,2.355,2.355,0,0,0-.985.217,2.386,2.386,0,0,1-1.935,0,2.42,2.42,0,0,0-1-.217,2.449,2.449,0,0,0-1,.217,2.4,2.4,0,0,1-1.941,0,2.412,2.412,0,0,0-2,0,2.41,2.41,0,0,1-1.945,0,2.413,2.413,0,0,0-2,0,2.474,2.474,0,0,1-.973.2V15.722a2.461,2.461,0,0,0,.973-.207,2.412,2.412,0,0,1,2,0,2.389,2.389,0,0,0,1.946,0,2.413,2.413,0,0,1,2,0,2.38,2.38,0,0,0,1.942,0,2.414,2.414,0,0,1,2,0,2.39,2.39,0,0,0,1.946,0,2.427,2.427,0,0,1,1-.217,2.195,2.195,0,0,1,.946.217,2.167,2.167,0,0,0,.911.207Zm-15.657-6-.006,3.3a2.439,2.439,0,0,0,.971-.234,2.445,2.445,0,0,1,1-.232,2.414,2.414,0,0,1,1,.21,2.426,2.426,0,0,0,1.945,0,2.407,2.407,0,0,1,2,0,2.4,2.4,0,0,0,1.942,0,2.411,2.411,0,0,1,2,0,2.428,2.428,0,0,0,.973.2,2.552,2.552,0,0,0,.286-.031,3.178,3.178,0,0,0,.518-.119l.011-.006a7.667,7.667,0,0,0,3.009-2.589l.337-.5ZM9.655,7.479H12c.026,0,.634-.094.838.351l.882,1.982H10.715ZM3.387,9.606c0,.155-.128.206-.285.206H1.811c-.157,0-.424-.051-.424-.206V7.7c0-.153.267-.218.424-.218H3.1c.157,0,.285.064.285.218v1.91Zm5.333,0c0,.155-.139.206-.3.206H7.133c-.159,0-.413-.051-.413-.206V7.7c0-.153.254-.218.413-.218H8.422c.159,0,.3.064.3.218v1.91Zm-2.667,0c0,.155-.139.206-.3.206H4.475c-.159,0-.421-.051-.421-.206V7.7c0-.153.262-.218.421-.218H5.756c.159,0,.3.064.3.218v1.91Zm7.182-2.359a1.525,1.525,0,0,0-1.422-.768H.722l0,4h13.9Z" transform="translate(-0.72 -6.477)"/></svg>