<?xml version="1.0" encoding="utf-8"?>
<!-- Generator: Adobe Illustrator 18.1.1, SVG Export Plug-In . SVG Version: 6.00 Build 0)  -->
<svg version="1.1" id="Layer_1" xmlns="http://www.w3.org/2000/svg" xmlns:xlink="http://www.w3.org/1999/xlink" x="0px" y="0px"
	 viewBox="0 0 75 53.6" enable-background="new 0 0 75 53.6" xml:space="preserve">
<g>
	<defs>
		<rect id="SVGID_1_" y="0" width="75" height="53.6"/>
	</defs>
	<clipPath id="SVGID_2_">
		<use xlink:href="#SVGID_1_"  overflow="visible"/>
	</clipPath>
	<path fill="#ffffff" clip-path="url(#SVGID_2_)" d="M32.1,0c-0.5,0.1-1,0.4-1.3,0.7L17.4,14.7c-0.8,0.9-0.8,2.3,0.1,3.2c0.9,0.8,2.3,0.8,3.2-0.1
		L34,3.9C34.9,3,35,1.6,34.1,0.7C33.6,0.1,32.8-0.1,32.1,0 M42.9,0c-1.2,0.2-2.1,1.3-1.9,2.5c0.1,0.5,0.3,0.9,0.7,1.3l13.4,13.9
		c0.8,0.9,2.3,0.9,3.2,0.1c0.9-0.8,0.9-2.3,0.1-3.2c0,0,0,0,0,0L44.8,0.8C44.4,0.3,43.7,0,43.1,0C43,0,42.9,0,42.9,0 M2,14.2
		c-1.2,0.2-2.1,1.3-1.9,2.5c0.2,1.2,1.3,2.1,2.5,1.9h2.1l8.9,33.3c0.3,1,1.1,1.7,2.1,1.7h43.8c1,0,2-0.7,2.2-1.7l8.9-33.3h2
		c1.2,0,2.2-1,2.3-2.2c0-1.2-1-2.2-2.2-2.3c0,0,0,0-0.1,0H62.4c0.6,1.4,0.6,3,0.1,4.5H66l-8.2,30.5H17.4L9.2,18.6h4
		c-0.5-1.4-0.5-3,0.1-4.5H2.5c-0.1,0-0.1,0-0.2,0c-0.1,0-0.1,0-0.2,0C2.1,14.2,2,14.2,2,14.2L2,14.2z M29.4,14.2l-4.3,4.5h25.5
		l-4.3-4.5H29.4z M23.3,22.9c-1.1,0.2-1.9,1.2-1.9,2.3v18.1c0,1.2,1,2.2,2.2,2.3c1.2,0,2.2-1,2.3-2.2c0,0,0,0,0-0.1V25.2
		c0.1-1.2-0.9-2.3-2.1-2.3c-0.1,0-0.2,0-0.3,0C23.4,22.9,23.3,22.9,23.3,22.9 M32.8,22.9c-1.1,0.2-1.8,1.2-1.8,2.3v18.1
		c0,1.2,1,2.2,2.2,2.3c1.2,0,2.2-1,2.3-2.2v-0.1V25.2c0.1-1.2-0.9-2.3-2.1-2.3c-0.1,0-0.3,0-0.4,0C33,22.9,32.9,22.9,32.8,22.9
		 M42.5,22.9c-1.1,0.2-1.9,1.2-1.9,2.3v18.1c0,1.2,1,2.2,2.2,2.3c1.2,0,2.2-1,2.3-2.2c0,0,0,0,0-0.1V25.2c0.1-1.2-0.9-2.3-2.1-2.3
		c-0.1,0-0.2,0-0.3,0C42.6,22.9,42.6,22.9,42.5,22.9 M52.1,22.9c-1.1,0.2-1.8,1.2-1.8,2.3v18.1c0,1.2,1,2.2,2.2,2.3
		c1.2,0,2.2-1,2.3-2.2v-0.1V25.2c0.1-1.2-0.9-2.3-2.1-2.3c-0.1,0-0.3,0-0.4,0C52.2,22.9,52.1,22.9,52.1,22.9"/>
</g>
</svg>
