<svg xmlns="http://www.w3.org/2000/svg" width="13.351" height="13.351" viewBox="0 0 13.351 13.351"><defs><style>.a{fill:#fff;}</style></defs><path class="a" d="M9.046,2.25a6.529,6.529,0,0,0-6.554,6.5,6.436,6.436,0,0,0,.94,3.358L2.25,15.6l3.629-1.153A6.565,6.565,0,0,0,15.6,8.754,6.529,6.529,0,0,0,9.046,2.25Zm3.259,8.973a1.693,1.693,0,0,1-1.159.747c-.307.016-.316.238-1.992-.49A6.838,6.838,0,0,1,6.391,8.868a3.214,3.214,0,0,1-.618-1.742,1.857,1.857,0,0,1,.638-1.363.642.642,0,0,1,.454-.191c.132,0,.217,0,.315,0s.244-.02.371.317.43,1.167.469,1.251a.3.3,0,0,1,0,.291,1.138,1.138,0,0,1-.178.271c-.087.094-.184.21-.262.282s-.178.166-.086.336A5.015,5.015,0,0,0,8.385,9.5a4.573,4.573,0,0,0,1.314.874c.164.09.262.08.364-.028s.436-.469.554-.631.228-.13.38-.069.958.493,1.123.583.274.135.313.206A1.376,1.376,0,0,1,12.306,11.223Z" transform="translate(-2.25 -2.25)"/></svg>