<svg xmlns="http://www.w3.org/2000/svg" width="16" height="11.2" viewBox="0 0 16 11.2"><defs><style>.a{fill:#fff;}</style></defs><path class="a" d="M15.722,6.716,12.36,2.682a1.2,1.2,0,0,0-.922-.432H.8a.8.8,0,0,0-.8.8v7.2a.8.8,0,0,0,.8.8h.8a2.4,2.4,0,0,0,4.8,0H9.6a2.4,2.4,0,0,0,4.8,0h.8a.8.8,0,0,0,.8-.8V7.484a1.2,1.2,0,0,0-.278-.768ZM1.6,6.25V3.85H4v2.4Zm2.4,6a1.2,1.2,0,1,1,1.2-1.2A1.2,1.2,0,0,1,4,12.25Zm4-6H5.6V3.85H8Zm4,6a1.2,1.2,0,1,1,1.2-1.2A1.2,1.2,0,0,1,12,12.25Zm-2.4-6V3.85h1.65l2,2.4Z" transform="translate(0 -2.25)"/></svg>