<svg xmlns="http://www.w3.org/2000/svg" width="15.167" height="10.111" viewBox="0 0 15.167 10.111"><defs><style>.a{fill:#fff;}</style></defs><path class="a" d="M3.37,7.028H11.8v5.056H3.37ZM13.9,9.556a1.264,1.264,0,0,0,1.264,1.264v2.528A1.264,1.264,0,0,1,13.9,14.611H1.264A1.264,1.264,0,0,1,0,13.347V10.82A1.264,1.264,0,0,0,1.264,9.556,1.264,1.264,0,0,0,0,8.292V5.764A1.264,1.264,0,0,1,1.264,4.5H13.9a1.264,1.264,0,0,1,1.264,1.264V8.292A1.264,1.264,0,0,0,13.9,9.556ZM12.639,6.817a.632.632,0,0,0-.632-.632H3.16a.632.632,0,0,0-.632.632v5.477a.632.632,0,0,0,.632.632h8.847a.632.632,0,0,0,.632-.632Z" transform="translate(0 -4.5)"/></svg>