<?xml version="1.0" encoding="utf-8"?>
<!-- Generator: Adobe Illustrator 18.1.1, SVG Export Plug-In . SVG Version: 6.00 Build 0)  -->
<svg version="1.1" id="Layer_1" xmlns="http://www.w3.org/2000/svg" xmlns:xlink="http://www.w3.org/1999/xlink" x="0px" y="0px"
	 viewBox="0 0 59.2 59.4" enable-background="new 0 0 59.2 59.4" xml:space="preserve">
<g>
	<defs>
		<rect id="SVGID_1_" y="0" width="59.2" height="59.4"/>
	</defs>
	<clipPath id="SVGID_2_">
		<use xlink:href="#SVGID_1_"  overflow="visible"/>
	</clipPath>
	<path clip-path="url(#SVGID_2_)" fill="#2E6EB2" d="M21.3,59.4c-1.3,0-2.6-0.5-3.5-1.5L1.5,41.6C0.5,40.6,0,39.4,0,38
		s0.5-2.6,1.5-3.5L28.6,7.3C28.8,7.1,29.1,7,29.3,7h22c0.6,0,1,0.4,1,1v22c0,0.3-0.1,0.5-0.3,0.7L24.9,57.9
		C23.9,58.9,22.6,59.4,21.3,59.4 M29.8,9L2.9,35.9C2.3,36.5,2,37.2,2,38s0.3,1.6,0.9,2.1l16.3,16.3c1.2,1.2,3.1,1.2,4.2,0l26.9-26.9
		V9H29.8z M41.3,23c-2.8,0-5-2.2-5-5s2.2-5,5-5s5,2.2,5,5S44.1,23,41.3,23 M41.3,15c-1.7,0-3,1.3-3,3c0,1.7,1.3,3,3,3
		c1.7,0,3-1.3,3-3C44.3,16.4,43,15,41.3,15"/>
	<path clip-path="url(#SVGID_2_)" fill="#2E6EB2" d="M51.3,19c-0.6,0-1-0.4-1-1c0-0.6,0.4-1,1-1c0.5,0,1-0.1,1.5-0.3
		c0.5-0.2,1.1,0,1.3,0.5c0.2,0.5,0,1.1-0.5,1.3C53,18.9,52.2,19,51.3,19 M41.3,19c-0.6,0-1-0.4-1-1c0-0.3,0-0.6,0-0.9
		c0-0.5,0.5-1,1-1h0c0.6,0,1,0.5,1,1c0,0.3,0,0.6,0,0.9C42.3,18.6,41.9,19,41.3,19 M55.5,16.7c-0.2,0-0.4-0.1-0.6-0.2
		c-0.4-0.3-0.5-1-0.2-1.4c0.3-0.4,0.7-1,0.9-1.6c0.2-0.5,0.8-0.7,1.3-0.4c0.5,0.2,0.7,0.8,0.4,1.3c-0.3,0.7-0.7,1.3-1.1,1.9
		C56.1,16.5,55.8,16.7,55.5,16.7 M41.6,15.1c0,0-0.1,0-0.1,0c-0.5-0.1-0.9-0.6-0.9-1.1c0.1-0.7,0.2-1.4,0.3-2
		c0.1-0.5,0.6-0.9,1.2-0.8c0.5,0.1,0.9,0.6,0.8,1.2c-0.1,0.6-0.2,1.3-0.3,1.9C42.5,14.8,42.1,15.1,41.6,15.1 M57.7,12.2
		c-0.1,0-0.2,0-0.3,0c-0.5-0.2-0.8-0.7-0.7-1.3c0.1-0.4,0.3-0.9,0.4-1.3c0-0.2,0.1-0.3,0.1-0.5c0.1-0.5,0.6-0.9,1.2-0.8
		c0.5,0.1,0.9,0.6,0.8,1.2c0,0.2-0.1,0.4-0.1,0.7c-0.1,0.5-0.3,1-0.4,1.4C58.5,11.9,58.1,12.2,57.7,12.2 M42.7,10.3
		c-0.1,0-0.2,0-0.3-0.1c-0.5-0.2-0.8-0.8-0.6-1.3C42,8.3,42.2,7.6,42.5,7c0.2-0.5,0.8-0.7,1.3-0.5c0.5,0.2,0.7,0.8,0.5,1.3
		c-0.3,0.6-0.5,1.2-0.7,1.8C43.5,10,43.1,10.3,42.7,10.3 M58.1,7.3c-0.4,0-0.8-0.3-1-0.7C57,6,56.7,5.5,56.4,5
		c-0.3-0.5-0.1-1.1,0.3-1.4c0.5-0.3,1.1-0.1,1.4,0.3C58.5,4.6,58.8,5.3,59,6c0.1,0.5-0.2,1.1-0.7,1.2C58.2,7.3,58.2,7.3,58.1,7.3
		 M44.9,5.8c-0.2,0-0.4-0.1-0.6-0.2c-0.5-0.3-0.6-0.9-0.2-1.4c0.4-0.6,0.9-1.1,1.3-1.7c0.4-0.4,1-0.4,1.4-0.1c0.4,0.4,0.4,1,0.1,1.4
		c-0.4,0.5-0.8,0.9-1.2,1.5C45.6,5.7,45.2,5.8,44.9,5.8 M55.2,3.3c-0.2,0-0.4-0.1-0.6-0.2c-0.5-0.3-1-0.6-1.5-0.8
		c-0.5-0.2-0.8-0.8-0.6-1.3c0.2-0.5,0.8-0.8,1.3-0.6c0.7,0.3,1.4,0.6,2,1c0.5,0.3,0.6,0.9,0.3,1.4C55.9,3.1,55.5,3.3,55.2,3.3
		 M48.6,2.5c-0.4,0-0.8-0.2-0.9-0.6c-0.2-0.5,0-1.1,0.5-1.3c0.7-0.3,1.5-0.5,2.2-0.6c0.6,0,1,0.3,1.1,0.9c0.1,0.5-0.3,1-0.9,1.1
		C50,2.1,49.5,2.2,49,2.4C48.8,2.5,48.7,2.5,48.6,2.5"/>
	<path clip-path="url(#SVGID_2_)" fill="#2E6EB2" d="M25.7,38.4L25.7,38.4c-1.3,0-2.5-0.5-3.3-1.4c-0.9-0.9-1.4-2.1-1.4-3.3
		c0-1.3,0.5-2.4,1.4-3.3c0.4-0.4,1-0.4,1.4,0c0.4,0.4,0.4,1,0,1.4c-0.5,0.5-0.8,1.2-0.8,1.9c0,0.7,0.3,1.4,0.8,1.9
		c0.5,0.5,1.2,0.8,1.9,0.8c0.7,0,1.4-0.3,1.9-0.8c1.5-1.5,0-4.2,0-4.2c-0.1-0.2-2.2-4.1,0.3-6.6c1.8-1.8,4.8-1.8,6.6,0
		c1.8,1.8,1.9,4.8,0,6.6c-0.4,0.4-1,0.4-1.4,0c-0.4-0.4-0.4-1,0-1.4c1-1,1-2.7,0-3.8c-1.1-1.1-2.8-1.1-3.8,0c-1.5,1.5,0,4.2,0,4.2
		c0.1,0.2,2.2,4.1-0.3,6.6C28.1,37.9,27,38.4,25.7,38.4"/>
	<path clip-path="url(#SVGID_2_)" fill="#2E6EB2" d="M33.8,26.5c-0.3,0-0.5-0.1-0.7-0.3c-0.4-0.4-0.4-1,0-1.4l1.5-1.5
		c0.4-0.4,1-0.4,1.4,0c0.4,0.4,0.4,1,0,1.4l-1.5,1.5C34.3,26.4,34.1,26.5,33.8,26.5"/>
	<path clip-path="url(#SVGID_2_)" fill="#2E6EB2" d="M21.3,39c-0.3,0-0.5-0.1-0.7-0.3c-0.4-0.4-0.4-1,0-1.4l1.8-1.8
		c0.4-0.4,1-0.4,1.4,0c0.4,0.4,0.4,1,0,1.4L22,38.7C21.9,38.9,21.6,39,21.3,39"/>
	<path clip-path="url(#SVGID_2_)" fill="#2E6EB2" d="M20.3,45c-0.3,0-0.5-0.1-0.7-0.3l-5-5c-0.4-0.4-0.4-1,0-1.4
		c0.4-0.4,1-0.4,1.4,0l5,5c0.4,0.4,0.4,1,0,1.4C20.9,44.9,20.6,45,20.3,45"/>
	<path clip-path="url(#SVGID_2_)" fill="#2E6EB2" d="M20.3,51c-0.3,0-0.5-0.1-0.7-0.3l-11-11c-0.4-0.4-0.4-1,0-1.4s1-0.4,1.4,0
		l11,11c0.4,0.4,0.4,1,0,1.4C20.9,50.9,20.6,51,20.3,51"/>
</g>
</svg>
