<?xml version="1.0" encoding="utf-8"?>
<!-- Generator: Adobe Illustrator 18.1.1, SVG Export Plug-In . SVG Version: 6.00 Build 0)  -->
<svg version="1.1" id="Layer_1" xmlns="http://www.w3.org/2000/svg" xmlns:xlink="http://www.w3.org/1999/xlink" x="0px" y="0px"
	 viewBox="0 0 56 56" enable-background="new 0 0 56 56" xml:space="preserve">
<g>
	<defs>
		<rect id="SVGID_1_" width="56" height="56"/>
	</defs>
	<clipPath id="SVGID_2_">
		<use xlink:href="#SVGID_1_"  overflow="visible"/>
	</clipPath>
	<path clip-path="url(#SVGID_2_)" fill="#2E6EB2" d="M28,48C17,48,8,39,8,28S17,8,28,8s20,9,20,20S39,48,28,48 M28,10
		c-9.9,0-18,8.1-18,18s8.1,18,18,18s18-8.1,18-18S37.9,10,28,10"/>
	<path clip-path="url(#SVGID_2_)" fill="#BDD9F4" d="M28,13c8.3,0,15,6.7,15,15c0,8.3-6.7,15-15,15s-15-6.7-15-15
		C13,19.7,19.7,13,28,13"/>
	<path clip-path="url(#SVGID_2_)" fill="#2E6EB2" d="M19,29c-0.1,0-0.3,0-0.4-0.1c-0.1,0-0.2-0.1-0.3-0.2c-0.1-0.1-0.2-0.2-0.2-0.3
		C18,28.3,18,28.1,18,28c0-0.6,0.4-1,1-1c0.6,0,1,0.4,1,1c0,0.1,0,0.3-0.1,0.4c-0.1,0.1-0.1,0.2-0.2,0.3c-0.1,0.1-0.2,0.2-0.3,0.2
		C19.3,29,19.1,29,19,29"/>
	<path clip-path="url(#SVGID_2_)" fill="#2E6EB2" d="M37,29c-0.6,0-1-0.4-1-1s0.4-1,1-1c0.6,0,1,0.4,1,1c0,0.1,0,0.3-0.1,0.4
		c-0.1,0.1-0.1,0.2-0.2,0.3C37.5,28.9,37.3,29,37,29"/>
	<path clip-path="url(#SVGID_2_)" fill="#2E6EB2" d="M28,35c-2.2,0-4-1.8-4-4c0-0.6,0.4-1,1-1s1,0.4,1,1c0,1.1,0.9,2,2,2
		c1.1,0,2-0.9,2-2c0-1.5-2.3-2.2-2.3-2.2S24,27.7,24,24.7c0-2.2,1.8-4,4-4s4,1.8,4,4c0,0.6-0.4,1-1,1c-0.6,0-1-0.4-1-1
		c0-1.1-0.9-2-2-2c-1.1,0-2,0.9-2,2c0,1.5,2.3,2.2,2.3,2.2c0,0,3.7,1.1,3.7,4.1C32,33.2,30.2,35,28,35"/>
	<path clip-path="url(#SVGID_2_)" fill="#2E6EB2" d="M28,22.7c-0.6,0-1-0.4-1-1V20c0-0.6,0.4-1,1-1c0.6,0,1,0.4,1,1v1.7
		C29,22.3,28.5,22.7,28,22.7"/>
	<path clip-path="url(#SVGID_2_)" fill="#2E6EB2" d="M28,6c-0.6,0-1-0.4-1-1V1c0-0.6,0.4-1,1-1c0.6,0,1,0.4,1,1v4
		C29,5.6,28.6,6,28,6"/>
	<path clip-path="url(#SVGID_2_)" fill="#2E6EB2" d="M22,6.8c-0.5,0-0.9-0.3-1-0.7l-0.4-1.9c-0.1-0.5,0.2-1.1,0.7-1.2
		c0.5-0.1,1,0.2,1.2,0.7L23,5.5c0.1,0.5-0.2,1.1-0.7,1.2C22.2,6.8,22.1,6.8,22,6.8"/>
	<path clip-path="url(#SVGID_2_)" fill="#2E6EB2" d="M34.5,53.1c-0.5,0-0.9-0.3-1-0.7L33,50.5c-0.2-0.5,0.1-1.1,0.7-1.2
		c0.5-0.2,1.1,0.1,1.2,0.7c0,0,0,0,0,0.1l0.5,1.9c0.1,0.5-0.2,1.1-0.7,1.2C34.6,53.1,34.5,53.2,34.5,53.1L34.5,53.1z"/>
	<path clip-path="url(#SVGID_2_)" fill="#2E6EB2" d="M50.2,23.1c-0.6,0-1-0.5-0.9-1.1c0-0.4,0.3-0.7,0.7-0.9l1.9-0.5
		c0.5-0.1,1.1,0.2,1.2,0.7c0.1,0.5-0.2,1-0.7,1.2L50.5,23C50.4,23.1,50.3,23.1,50.2,23.1"/>
	<path clip-path="url(#SVGID_2_)" fill="#2E6EB2" d="M3.9,35.5c-0.6,0.1-1.1-0.3-1.1-0.9s0.3-1.1,0.9-1.1l1.9-0.5
		c0.5-0.1,1.1,0.2,1.2,0.7c0.1,0.5-0.2,1.1-0.7,1.2l-1.9,0.5C4,35.5,3.9,35.5,3.9,35.5"/>
	<path clip-path="url(#SVGID_2_)" fill="#2E6EB2" d="M11.7,12.7c-0.3,0-0.5-0.1-0.7-0.3L9.6,11C9.3,10.6,9.3,10,9.8,9.6
		c0.4-0.3,0.9-0.3,1.2,0l1.4,1.4c0.4,0.4,0.4,1,0,1.4C12.2,12.6,12,12.7,11.7,12.7L11.7,12.7z"/>
	<path clip-path="url(#SVGID_2_)" fill="#2E6EB2" d="M45.7,46.7c-0.3,0-0.5-0.1-0.7-0.3L43.5,45c-0.4-0.4-0.4-1,0-1.4
		c0.4-0.4,1-0.4,1.4,0l1.4,1.4c0.4,0.4,0.4,1,0,1.4C46.2,46.6,46,46.7,45.7,46.7L45.7,46.7z"/>
	<path clip-path="url(#SVGID_2_)" fill="#2E6EB2" d="M44.3,12.7c-0.6,0-1-0.4-1-1c0-0.3,0.1-0.5,0.3-0.7L45,9.6
		c0.4-0.4,1.1-0.3,1.4,0.1c0.3,0.4,0.3,0.9,0,1.3L45,12.4C44.8,12.6,44.5,12.7,44.3,12.7"/>
	<path clip-path="url(#SVGID_2_)" fill="#2E6EB2" d="M10.3,46.7c-0.6,0-1-0.4-1-1c0-0.3,0.1-0.5,0.3-0.7l1.4-1.4
		c0.4-0.4,1.1-0.3,1.4,0.1c0.3,0.4,0.3,0.9,0,1.3L11,46.4C10.8,46.6,10.6,46.7,10.3,46.7"/>
	<path clip-path="url(#SVGID_2_)" fill="#2E6EB2" d="M5.8,23.1c-0.1,0-0.2,0-0.3,0l-1.9-0.5c-0.5-0.2-0.8-0.7-0.7-1.3
		c0.2-0.5,0.7-0.8,1.2-0.7L6,21.1c0.6,0.1,0.9,0.6,0.9,1.1C6.8,22.8,6.3,23.2,5.8,23.1L5.8,23.1z"/>
	<path clip-path="url(#SVGID_2_)" fill="#2E6EB2" d="M52.2,35.5c-0.1,0-0.2,0-0.3,0L50,34.9c-0.5-0.2-0.8-0.7-0.7-1.2
		c0.2-0.5,0.7-0.8,1.2-0.7l1.9,0.5c0.6,0.1,0.9,0.6,0.9,1.1C53.2,35.2,52.7,35.6,52.2,35.5L52.2,35.5z"/>
	<path clip-path="url(#SVGID_2_)" fill="#2E6EB2" d="M34,6.8c-0.6,0-1-0.4-1-1c0-0.1,0-0.2,0-0.3l0.5-1.9c0.2-0.5,0.8-0.8,1.3-0.6
		c0.4,0.2,0.7,0.6,0.6,1.1L34.9,6C34.8,6.5,34.4,6.8,34,6.8"/>
	<path clip-path="url(#SVGID_2_)" fill="#2E6EB2" d="M21.5,53.1c-0.6,0-1-0.4-1-1c0-0.1,0-0.2,0-0.3l0.5-1.9
		c0.1-0.5,0.7-0.9,1.2-0.7s0.9,0.7,0.7,1.2c0,0,0,0,0,0.1l-0.5,1.9C22.3,52.8,22,53.1,21.5,53.1"/>
	<path clip-path="url(#SVGID_2_)" fill="#2E6EB2" d="M28,56c-0.6,0-1-0.4-1-1v-4c0-0.6,0.4-1,1-1c0.6,0,1,0.4,1,1v4
		C29,55.6,28.6,56,28,56"/>
	<path clip-path="url(#SVGID_2_)" fill="#2E6EB2" d="M55,29h-4c-0.6,0-1-0.4-1-1s0.4-1,1-1h4c0.6,0,1,0.4,1,1S55.6,29,55,29"/>
	<path clip-path="url(#SVGID_2_)" fill="#2E6EB2" d="M5,29H1c-0.6,0-1-0.4-1-1s0.4-1,1-1h4c0.6,0,1,0.4,1,1S5.6,29,5,29"/>
	<path clip-path="url(#SVGID_2_)" fill="#2E6EB2" d="M16.5,9.1c-0.4,0-0.7-0.2-0.9-0.5l-2-3.5c-0.3-0.5-0.1-1.1,0.4-1.3
		c0.5-0.2,1-0.1,1.3,0.3l2,3.5c0.3,0.5,0.2,1.1-0.3,1.4C16.9,9,16.7,9.1,16.5,9.1"/>
	<path clip-path="url(#SVGID_2_)" fill="#2E6EB2" d="M41.5,52.4c-0.4,0-0.7-0.2-0.9-0.5l-2-3.5c-0.3-0.5-0.1-1.1,0.4-1.3
		c0.5-0.2,1-0.1,1.3,0.3l2,3.5c0.3,0.5,0.1,1.1-0.4,1.4C41.8,52.3,41.7,52.4,41.5,52.4L41.5,52.4z"/>
	<path clip-path="url(#SVGID_2_)" fill="#2E6EB2" d="M47.9,17.5c-0.6,0-1-0.4-1-1c0-0.4,0.2-0.7,0.5-0.9l3.5-2
		c0.5-0.3,1.1-0.2,1.4,0.3c0.3,0.5,0.2,1.1-0.3,1.4c0,0,0,0-0.1,0l-3.5,2C48.3,17.4,48.1,17.5,47.9,17.5"/>
	<path clip-path="url(#SVGID_2_)" fill="#2E6EB2" d="M4.6,42.5c-0.6,0-1-0.4-1-1c0-0.4,0.2-0.7,0.5-0.9l3.5-2
		c0.5-0.3,1.1-0.1,1.3,0.4c0.2,0.5,0.1,1-0.3,1.3l-3.5,2C5,42.4,4.8,42.5,4.6,42.5"/>
	<path clip-path="url(#SVGID_2_)" fill="#2E6EB2" d="M8.1,17.5c-0.2,0-0.3,0-0.5-0.1l-3.5-2c-0.5-0.3-0.6-0.9-0.3-1.4
		c0.3-0.4,0.8-0.6,1.3-0.3l3.5,2C9.1,15.9,9.2,16.5,9,17C8.8,17.3,8.4,17.5,8.1,17.5L8.1,17.5z"/>
	<path clip-path="url(#SVGID_2_)" fill="#2E6EB2" d="M51.4,42.5c-0.2,0-0.3,0-0.5-0.1l-3.5-2c-0.5-0.3-0.6-0.9-0.3-1.4
		c0.3-0.4,0.8-0.6,1.3-0.3l3.5,2c0.5,0.3,0.6,0.9,0.4,1.4C52.1,42.3,51.7,42.5,51.4,42.5L51.4,42.5z"/>
	<path clip-path="url(#SVGID_2_)" fill="#2E6EB2" d="M39.5,9.1c-0.6,0-1-0.4-1-1c0-0.2,0-0.4,0.1-0.5l2-3.5c0.3-0.5,0.9-0.6,1.4-0.3
		c0.4,0.3,0.6,0.8,0.3,1.3l-2,3.5C40.2,8.9,39.9,9.1,39.5,9.1"/>
	<path clip-path="url(#SVGID_2_)" fill="#2E6EB2" d="M14.5,52.4c-0.6,0-1-0.4-1-1c0-0.2,0-0.4,0.1-0.5l2-3.5
		c0.3-0.5,0.9-0.6,1.4-0.3c0.4,0.3,0.6,0.8,0.4,1.3l-2,3.5C15.2,52.2,14.9,52.4,14.5,52.4"/>
	<path clip-path="url(#SVGID_2_)" fill="#2E6EB2" d="M28,37c-0.6,0-1-0.4-1-1v-2c0-0.6,0.4-1,1-1c0.6,0,1,0.4,1,1v2
		C29,36.6,28.6,37,28,37"/>
</g>
</svg>
