<?xml version="1.0" encoding="utf-8"?>
<!-- Generator: Adobe Illustrator 22.0.1, SVG Export Plug-In . SVG Version: 6.00 Build 0)  -->
<svg version="1.2" baseProfile="tiny" id="Layer_1" xmlns="http://www.w3.org/2000/svg" xmlns:xlink="http://www.w3.org/1999/xlink"
	 x="0px" y="0px" viewBox="0 0 60 60" xml:space="preserve">
<path fill="#2E6EB2" d="M46,12H36c-0.6,0-1-0.4-1-1s0.4-1,1-1h10c0.6,0,1,0.4,1,1S46.5,12,46,12z"/>
<path fill="#2E6EB2" d="M24,12H14c-0.6,0-1-0.4-1-1s0.4-1,1-1h10c0.6,0,1,0.4,1,1S24.5,12,24,12z"/>
<path fill="#2E6EB2" d="M30,7c-0.6,0-1-0.4-1-1V3c0-0.6,0.4-1,1-1s1,0.4,1,1v3C31,6.6,30.6,7,30,7z"/>
<path fill="#2E6EB2" d="M30,58c-0.6,0-1-0.4-1-1V16c0-0.6,0.4-1,1-1s1,0.4,1,1v41C31,57.6,30.6,58,30,58z"/>
<path fill="#2E6EB2" d="M39,58H21c-0.6,0-1-0.4-1-1s0.4-1,1-1h18c0.6,0,1,0.4,1,1S39.6,58,39,58z"/>
<path fill="#2E6EB2" d="M23,41c-0.4,0-0.8-0.2-0.9-0.6L12,15.7L1.9,40.4c-0.2,0.5-0.8,0.8-1.3,0.5c-0.5-0.2-0.8-0.8-0.5-1.3l11-27
	c0.2-0.4,0.5-0.6,0.9-0.6s0.8,0.2,0.9,0.6l11,27c0.2,0.5,0,1.1-0.5,1.3C23.3,41,23.1,41,23,41z"/>
<circle fill="#BDD9F4" cx="30" cy="11" r="5"/>
<path fill="#2E6EB2" d="M30,17c-3.3,0-6-2.7-6-6s2.7-6,6-6s6,2.7,6,6S33.3,17,30,17z M30,7c-2.2,0-4,1.8-4,4s1.8,4,4,4s4-1.8,4-4
	S32.2,7,30,7z"/>
<path fill="#2E6EB2" d="M59,41c-0.4,0-0.8-0.2-0.9-0.6L48,15.7L37.9,40.4c-0.2,0.5-0.8,0.8-1.3,0.5c-0.5-0.2-0.8-0.8-0.5-1.3l11-27
	c0.2-0.4,0.5-0.6,0.9-0.6s0.8,0.2,0.9,0.6l11,27c0.2,0.5,0,1.1-0.5,1.3C59.3,41,59.1,41,59,41z"/>
<path fill="#2E6EB2" d="M12,52C5.4,52,0,46.6,0,40c0-0.6,0.4-1,1-1h22c0.6,0,1,0.4,1,1C24,46.6,18.6,52,12,52z M2,41
	c0.5,5,4.8,9,10,9s9.4-4,10-9H2z"/>
<circle fill="#BDD9F4" cx="12" cy="11" r="2"/>
<path fill="#2E6EB2" d="M12,14c-1.7,0-3-1.3-3-3s1.3-3,3-3s3,1.3,3,3S13.6,14,12,14z M12,10c-0.6,0-1,0.4-1,1s0.4,1,1,1s1-0.4,1-1
	S12.5,10,12,10z"/>
<circle fill="#BDD9F4" cx="48" cy="11" r="2"/>
<path fill="#2E6EB2" d="M48,14c-1.7,0-3-1.3-3-3s1.3-3,3-3s3,1.3,3,3S49.6,14,48,14z M48,10c-0.6,0-1,0.4-1,1s0.4,1,1,1s1-0.4,1-1
	S48.5,10,48,10z"/>
<path fill="#2E6EB2" d="M48,52c-6.6,0-12-5.4-12-12c0-0.6,0.4-1,1-1h22c0.6,0,1,0.4,1,1C60,46.6,54.6,52,48,52z M38,41
	c0.5,5,4.8,9,10,9s9.4-4,10-9H38z"/>
<path fill="#2E6EB2" d="M12,48c-3.1,0-5.9-1.8-7.2-4.6c-0.2-0.5,0-1.1,0.5-1.3c0.5-0.2,1.1,0,1.3,0.5c1,2.1,3.1,3.4,5.4,3.4
	c0.6,0,1,0.4,1,1S12.5,48,12,48z"/>
<path fill="#2E6EB2" d="M48,48c-3.1,0-5.9-1.8-7.2-4.6c-0.2-0.5,0-1.1,0.5-1.3c0.5-0.2,1.1,0,1.3,0.5c1,2.1,3.1,3.4,5.4,3.4
	c0.6,0,1,0.4,1,1S48.5,48,48,48z"/>
</svg>
