<?xml version="1.0" encoding="utf-8"?>
<!-- Generator: Adobe Illustrator 18.1.1, SVG Export Plug-In . SVG Version: 6.00 Build 0)  -->
<svg version="1.1" id="Layer_1" xmlns="http://www.w3.org/2000/svg" xmlns:xlink="http://www.w3.org/1999/xlink" x="0px" y="0px"
	 viewBox="0 0 29.7 34" enable-background="new 0 0 29.7 34" xml:space="preserve">
<g>
	<defs>
		<rect id="SVGID_1_" y="0" width="29.7" height="34"/>
	</defs>
	<clipPath id="SVGID_2_">
		<use xlink:href="#SVGID_1_"  overflow="visible"/>
	</clipPath>
	<path clip-path="url(#SVGID_2_)" fill="#070D1C" d="M26.9,5l-3.5,3.5c-1.9-1.4-4.1-2.3-6.5-2.7V4h2.4V0h-8.8v4h2.4v1.8
		c-2.4,0.3-4.6,1.3-6.5,2.7L2.9,5L0,7.8l3.6,3.6c-4.7,6.2-3.5,15.1,2.8,19.8c6.2,4.7,15.1,3.5,19.8-2.8c3.8-5,3.8-12,0-17.1l3.5-3.5
		L26.9,5z M14.9,30C9.3,30,4.7,25.5,4.7,19.9c0-5.6,4.5-10.2,10.1-10.2c2.6,0,5.2,1,7.1,2.9l0.2,0.2c3.9,4,3.8,10.4-0.2,14.4
		C20.1,29,17.5,30,14.9,30"/>
	<polygon clip-path="url(#SVGID_2_)" fill="#070D1C" points="16.9,11.8 12.9,11.8 12.9,19 12.9,20.7 14.1,21.8 18.4,26.2 21.3,23.4 
		16.9,19 	"/>
</g>
</svg>
