<?xml version="1.0" encoding="utf-8"?>
<!-- Generator: Adobe Illustrator 22.0.1, SVG Export Plug-In . SVG Version: 6.00 Build 0)  -->
<svg version="1.2" baseProfile="tiny" id="Layer_1" xmlns="http://www.w3.org/2000/svg" xmlns:xlink="http://www.w3.org/1999/xlink"
	 x="0px" y="0px" viewBox="0 0 57.4 51.7" xml:space="preserve">
<path fill="#BDD9F4" d="M15.3,50.7c-2.7,0.3-4.8-1.5-4.6-1.5c0,0,2.1-2.6,4.8-2.9c2.7-0.3,5.1,1.8,5.1,1.8S18,50.4,15.3,50.7z"/>
<path fill="#2E6EB2" d="M14.7,51.7c-2.4,0-4.3-1.3-4.8-1.9c-0.2-0.3-0.3-0.7-0.1-1c0-0.1,0.1-0.2,0.2-0.3c0.4-0.4,2.5-2.9,5.4-3.2
	c3.2-0.4,5.8,2,5.9,2.1c0.2,0.2,0.3,0.5,0.3,0.7s-0.1,0.6-0.3,0.7c-0.1,0.1-2.9,2.6-5.9,2.9l0,0C15.1,51.7,14.9,51.7,14.7,51.7z
	 M15.3,50.7L15.3,50.7L15.3,50.7z M12.1,49c0.7,0.4,1.8,0.8,3,0.7c1.4-0.2,2.8-0.9,3.8-1.6c-0.8-0.5-2-1-3.3-0.9
	C14.2,47.4,12.9,48.3,12.1,49z"/>
<path fill="#BDD9F4" d="M3.4,32.9c-2-1.9-2.5-5.2-2.4-5.1c0,0,3.3-0.2,5.4,1.7c2,1.9,2,5,2,5S5.4,34.7,3.4,32.9z"/>
<path fill="#2E6EB2" d="M8.1,35.5c-0.9,0-3.5-0.2-5.4-1.9l0,0c-2.1-1.9-2.8-5.3-2.7-6c0.1-0.3,0.3-0.6,0.7-0.8c0.1,0,0.2,0,0.3,0
	c0.6,0,3.8,0,6,1.9c2.3,2.1,2.4,5.6,2.4,5.8c0,0.5-0.4,1-0.9,1C8.5,35.5,8.3,35.5,8.1,35.5z M4.1,32.1c1,0.9,2.3,1.2,3.3,1.3
	c-0.2-0.9-0.6-2.3-1.6-3.3c-1-0.9-2.5-1.3-3.5-1.4C2.5,29.8,3,31.2,4.1,32.1L4.1,32.1z"/>
<path fill="#BDD9F4" d="M6.9,42.9c-2.6-0.8-3.7-3.3-3.5-3.2c0,0,2.9-1.6,5.6-0.7c2.6,0.8,4,3.7,4,3.7S9.5,43.8,6.9,42.9z"/>
<path fill="#2E6EB2" d="M9.2,44.3c-0.9,0-1.8-0.1-2.6-0.4l0,0c-2.7-0.8-4-3.2-4.2-3.9c-0.1-0.3,0-0.8,0.3-1c0.1-0.1,0.2-0.1,0.3-0.2
	c0.5-0.3,3.5-1.6,6.3-0.8c3,0.9,4.5,4.1,4.6,4.3c0.1,0.3,0.1,0.6,0,0.8c-0.1,0.3-0.3,0.5-0.6,0.5C13.1,43.7,11.3,44.3,9.2,44.3z
	 M7.2,42c1.4,0.4,3,0.3,4.2,0.1c-0.6-0.8-1.5-1.7-2.7-2.1c-1.4-0.4-3-0.1-3.9,0.3C5.2,40.8,6,41.6,7.2,42L7.2,42z"/>
<path fill="#2E6EB2" d="M24.7,49.9c-0.1,0-0.1,0-0.2,0c-10.3-2-17.8-11.1-17.8-21.6C6.7,20.4,11,13,17.9,9.1l0.3-0.2
	c0.5-0.3,1.1-0.1,1.4,0.4c0.3,0.5,0.1,1.1-0.4,1.4l-0.3,0.2C12.6,14.4,8.7,21.1,8.7,28.3c0,9.6,6.8,17.8,16.2,19.6
	c0.5,0.1,0.9,0.6,0.8,1.2C25.6,49.6,25.2,49.9,24.7,49.9z"/>
<path fill="#BDD9F4" d="M4.1,21.5C3,19,3.8,15.6,3.8,15.8c0,0,3.1,1.2,4.2,3.8C9.1,22.1,7.7,25,7.7,25S5.2,24.1,4.1,21.5z"/>
<path fill="#2E6EB2" d="M7.7,26c-0.1,0-0.2,0-0.3-0.1c-0.1,0-3-1.1-4.2-4l0,0c-1.1-2.7-0.7-6.7,0.2-7.1c0.3-0.1,0.6-0.1,0.8,0
	c0.4,0.2,3.5,1.5,4.7,4.3c1.2,2.9-0.2,6.1-0.3,6.2C8.5,25.8,8.1,26,7.7,26z M4.6,17.3c-0.1,1-0.1,2.6,0.5,3.9l0,0
	c0.5,1.2,1.4,2,2.1,2.4c0.2-0.9,0.5-2.4-0.1-3.6C6.6,18.7,5.4,17.8,4.6,17.3z"/>
<path fill="#BDD9F4" d="M18.7,5C20,2.6,23.2,0.8,23.1,1c0,0,1.3,3.3-0.2,5.6c-1.8,2.7-4.3,3.3-4.3,3.3S17.5,7.5,18.7,5z"/>
<path fill="#2E6EB2" d="M18.6,10.9c-0.4,0-0.7-0.2-0.9-0.6c-0.1-0.1-1.3-2.9,0.2-5.7l0,0c1.3-2.6,4.9-5,5.7-4.5
	c0.2,0.1,0.4,0.3,0.5,0.6c0.2,0.5,1.4,3.9-0.3,6.5c-2,3-4.8,3.7-4.9,3.7C18.7,10.9,18.7,10.9,18.6,10.9z M19.6,5.5
	c-0.6,1.2-0.6,2.3-0.4,3.1C20,8.2,21.1,7.4,22.1,6c0.7-1.1,0.6-2.6,0.4-3.6C21.6,3.1,20.3,4.2,19.6,5.5L19.6,5.5z"/>
<path fill="#BDD9F4" d="M9.2,11.8C8.9,9,10.8,5.8,10.8,6c0,0,2.6,2.1,2.8,4.9c0.2,2.8-1.9,5.1-1.9,5.1S9.4,14.5,9.2,11.8z"/>
<path fill="#2E6EB2" d="M11.7,17c-0.2,0-0.4-0.1-0.5-0.2c-0.1-0.1-2.6-1.7-2.9-4.9v0C7.9,9.2,9.6,5.1,10.7,5c0.3,0,0.6,0.1,0.8,0.3
	c0.3,0.3,2.9,2.6,3.1,5.5c0.3,3.2-2.1,5.7-2.2,5.9C12.2,16.9,11.9,17,11.7,17z M10.2,11.7c0.1,1.3,0.8,2.3,1.3,2.8
	c0.5-0.8,1.2-2.1,1.1-3.5c-0.1-1.3-0.9-2.5-1.6-3.3C10.6,8.7,10.1,10.3,10.2,11.7L10.2,11.7z"/>
<path fill="#BDD9F4" d="M42.1,50.7c2.7,0.3,4.8-1.5,4.6-1.5c0,0-2.1-2.6-4.8-2.9c-2.7-0.3-5.1,1.8-5.1,1.8S39.4,50.4,42.1,50.7z"/>
<path fill="#2E6EB2" d="M42.7,51.7c-0.2,0-0.5,0-0.7,0l0,0c-3-0.3-5.8-2.8-5.9-2.9c-0.2-0.2-0.3-0.5-0.3-0.7s0.1-0.6,0.3-0.7
	c0.1-0.1,2.8-2.4,5.9-2.1c2.9,0.3,5.1,2.8,5.4,3.2c0.1,0.1,0.1,0.2,0.2,0.3c0.1,0.3,0.1,0.8-0.1,1C47.1,50.4,45.1,51.7,42.7,51.7z
	 M42.2,49.7c1.3,0.1,2.4-0.3,3-0.7c-0.7-0.7-2-1.7-3.4-1.8c-1.3-0.1-2.5,0.4-3.3,0.9C39.4,48.7,40.8,49.5,42.2,49.7L42.2,49.7z"/>
<path fill="#BDD9F4" d="M54,32.9c2-1.9,2.5-5.2,2.4-5.1c0,0-3.3-0.2-5.4,1.7c-2,1.9-2,5-2,5S52,34.7,54,32.9z"/>
<path fill="#2E6EB2" d="M49.3,35.5c-0.2,0-0.3,0-0.4,0c-0.5,0-0.9-0.5-0.9-1c0-0.1,0-3.7,2.4-5.8c2.2-2,5.4-2,6-1.9
	c0.1,0,0.2,0,0.3,0c0.3,0.1,0.6,0.4,0.7,0.8c0.2,0.7-0.6,4.1-2.7,6l0,0C52.8,35.4,50.2,35.5,49.3,35.5z M55.2,28.9
	c-1,0.1-2.5,0.4-3.5,1.4c-1,0.9-1.4,2.3-1.6,3.3c0.9-0.1,2.2-0.4,3.3-1.3C54.4,31.2,54.9,29.8,55.2,28.9z M54,32.9L54,32.9L54,32.9z
	"/>
<path fill="#BDD9F4" d="M50.5,42.9c2.6-0.8,3.7-3.3,3.5-3.2c0,0-2.9-1.6-5.6-0.7c-2.6,0.8-4,3.7-4,3.7S47.8,43.8,50.5,42.9z"/>
<path fill="#2E6EB2" d="M48.2,44.3c-2.1,0-3.9-0.6-4-0.6c-0.3-0.1-0.5-0.3-0.6-0.5c-0.1-0.3-0.1-0.6,0-0.8c0.1-0.1,1.6-3.3,4.6-4.3
	c2.8-0.9,5.7,0.5,6.3,0.8c0.1,0,0.2,0.1,0.3,0.2c0.3,0.2,0.4,0.7,0.3,1c-0.2,0.7-1.5,3-4.2,3.9l0,0C49.9,44.2,49,44.3,48.2,44.3z
	 M50.5,42.9L50.5,42.9L50.5,42.9z M46,42.1c1.1,0.2,2.8,0.4,4.2-0.1l0,0c1.2-0.4,2-1.2,2.4-1.8c-1-0.3-2.5-0.7-3.9-0.3
	C47.5,40.3,46.6,41.3,46,42.1z"/>
<path fill="#2E6EB2" d="M32.7,49.9c-0.5,0-0.9-0.3-1-0.8c-0.1-0.5,0.3-1.1,0.8-1.2c9.4-1.8,16.2-10.1,16.2-19.6
	c0-7.2-3.9-13.9-10.2-17.4l-0.3-0.2c-0.5-0.3-0.7-0.9-0.4-1.4c0.3-0.5,0.9-0.7,1.4-0.4l0.3,0.2c6.9,3.9,11.3,11.2,11.3,19.2
	c0,10.5-7.5,19.6-17.8,21.6C32.8,49.9,32.8,49.9,32.7,49.9z"/>
<path fill="#BDD9F4" d="M53.3,21.5c1.1-2.5,0.4-5.9,0.3-5.8c0,0-3.1,1.2-4.2,3.8c-1.1,2.5,0.3,5.4,0.3,5.4S52.2,24.1,53.3,21.5z"/>
<path fill="#2E6EB2" d="M49.6,26c-0.4,0-0.7-0.2-0.9-0.6c-0.1-0.1-1.5-3.3-0.3-6.2c1.2-2.7,4.3-4.1,4.7-4.3c0.2-0.1,0.5-0.1,0.8,0
	c0.9,0.4,1.3,4.4,0.2,7.1c-1.2,2.9-4.1,3.9-4.2,4C49.9,26,49.8,26,49.6,26z M52.8,17.3c-0.9,0.5-2,1.4-2.5,2.6
	c-0.5,1.3-0.3,2.7-0.1,3.6c0.7-0.4,1.6-1.2,2.1-2.4l0,0C52.9,19.9,52.9,18.3,52.8,17.3z"/>
<path fill="#BDD9F4" d="M38.6,5c-1.3-2.5-4.5-4.2-4.4-4.1c0,0-1.3,3.3,0.2,5.6c1.8,2.7,4.3,3.3,4.3,3.3S39.9,7.5,38.6,5z"/>
<path fill="#2E6EB2" d="M38.8,10.9c-0.1,0-0.1,0-0.2,0c-0.1,0-2.9-0.7-4.9-3.7c-1.7-2.6-0.5-6-0.3-6.5c0.1-0.2,0.3-0.5,0.5-0.6
	c0.9-0.4,4.4,1.9,5.7,4.5l0,0c1.5,2.9,0.2,5.6,0.2,5.7C39.6,10.6,39.2,10.9,38.8,10.9z M34.9,2.5c-0.2,1-0.3,2.5,0.4,3.6
	c0.9,1.4,2.1,2.2,2.9,2.5c0.1-0.8,0.2-1.9-0.4-3.1l0,0C37.1,4.2,35.8,3.1,34.9,2.5z"/>
<path fill="#BDD9F4" d="M48.2,11.8C48.5,9,46.6,5.8,46.6,6c0,0-2.6,2.1-2.8,4.9c-0.2,2.8,1.9,5.1,1.9,5.1S48,14.5,48.2,11.8z"/>
<path fill="#2E6EB2" d="M45.7,17c-0.3,0-0.5-0.1-0.7-0.3c-0.1-0.1-2.5-2.7-2.2-5.9c0.3-3,2.8-5.2,3.1-5.5C46.1,5.1,46.4,5,46.7,5
	c1.1,0.1,2.7,4.1,2.5,6.9v0c-0.3,3.2-2.8,4.9-2.9,4.9C46.1,16.9,45.9,17,45.7,17z M46.4,7.7c-0.7,0.8-1.5,2-1.6,3.3
	c-0.1,1.4,0.6,2.7,1.1,3.5c0.5-0.6,1.2-1.5,1.3-2.8C47.3,10.3,46.8,8.7,46.4,7.7z M48.2,11.8L48.2,11.8L48.2,11.8z"/>
<path fill="#2E6EB2" d="M22.6,39.2c-0.4,0-0.9-0.1-1.2-0.4c-0.7-0.5-1-1.4-0.8-2.3l1.8-5.7l-4.8-3.7c-0.7-0.6-1-1.5-0.7-2.3
	c0.3-0.9,1.1-1.4,2-1.4l6,0l1.9-5.8c0,0,0,0,0,0c0.3-0.9,1.1-1.4,2-1.4s1.7,0.6,2,1.4l1.9,5.8l6,0c0.9,0,1.7,0.6,2,1.4
	c0.3,0.9,0,1.8-0.7,2.3L35,30.8l1.8,5.7c0.3,0.9,0,1.8-0.8,2.3c-0.7,0.5-1.7,0.6-2.4,0l-4.9-3.4l-4.9,3.4
	C23.4,39.1,23,39.2,22.6,39.2z M28.6,18.2l-2.2,6.4c-0.1,0.4-0.5,0.7-0.9,0.7l-6.7,0c0,0-0.1,0-0.1,0.1c0,0.1,0,0.1,0,0.1l5.4,4.1
	c0.3,0.3,0.5,0.7,0.3,1.1l-2,6.3c0,0,0,0.1,0,0.1c0.1,0,0.1,0,0.1,0l5.5-3.8c0.3-0.2,0.8-0.2,1.1,0l5.5,3.8c0,0,0.1,0,0.1,0
	c0.1,0,0-0.1,0-0.1l-2-6.3c-0.1-0.4,0-0.8,0.3-1.1l5.4-4.1c0,0,0.1,0,0-0.1c0-0.1-0.1-0.1-0.1-0.1l-6.7,0c-0.4,0-0.8-0.3-0.9-0.7
	l-2.2-6.4C28.8,18.2,28.6,18.2,28.6,18.2L28.6,18.2z M25.5,24.3L25.5,24.3L25.5,24.3z"/>
</svg>
