<svg xmlns="http://www.w3.org/2000/svg" width="28.327" height="20.025" viewBox="0 0 28.327 20.025"><defs><style>.a{fill:#fff;}</style></defs><path class="a" d="M4.821,19.992H3.607L0,12.893H2.23l1.869,4.1,1.9-4.1h.918l1.9,4.1,1.869-4.1h2.23l-3.607,7.1H8.1L6.459,15.811Z" transform="translate(0 -10.408)"/><path class="a" d="M71.07,11.932h2v7.1h-2v-.918a2.546,2.546,0,0,1-2.18,1.148,3.6,3.6,0,0,1-3.623-3.787A3.55,3.55,0,0,1,68.791,11.7,2.571,2.571,0,0,1,71.07,12.85Zm-3.738,3.541a1.968,1.968,0,1,0,1.967-2A1.944,1.944,0,0,0,67.332,15.473Z" transform="translate(-52.688 -9.447)"/><path class="a" d="M112.851,0V9.584h-2V0Z" transform="translate(-89.488)"/><path class="a" d="M63.445,57.423v5.394h-2V53.292h2v2.426h1.377v1.705Z" transform="translate(-49.604 -43.022)"/><path class="a" d="M86.286,70.036a3.507,3.507,0,0,1-3.492,2.213,3.715,3.715,0,0,1-2.721-1,3.576,3.576,0,0,1-1.115-2.771,3.78,3.78,0,0,1,1.082-2.787,3.637,3.637,0,0,1,2.672-1,3.394,3.394,0,0,1,2.771,1.164,4.244,4.244,0,0,1,.852,2.787v.164H81.024a2.1,2.1,0,0,0,.344,1.2,1.69,1.69,0,0,0,1.426.672,1.83,1.83,0,0,0,1.656-.935ZM84.45,67.527a1.7,1.7,0,0,0-3.361,0Z" transform="translate(-63.741 -52.224)"/><path class="a" d="M126.536,65.883h-4.882v7.1h2v-5.4h2.882Z" transform="translate(-98.209 -53.186)"/><rect class="a" width="1.767" height="1.768" transform="translate(26.56 18.032)"/></svg>