<?xml version="1.0" encoding="utf-8"?>
<!-- Generator: Adobe Illustrator 18.1.1, SVG Export Plug-In . SVG Version: 6.00 Build 0)  -->
<svg version="1.1" id="Layer_1" xmlns="http://www.w3.org/2000/svg" xmlns:xlink="http://www.w3.org/1999/xlink" x="0px" y="0px"
	 viewBox="0 0 419.1 105" enable-background="new 0 0 419.1 105" xml:space="preserve">
<g>
	<defs>
		<rect id="SVGID_1_" width="419.1" height="105"/>
	</defs>
	<clipPath id="SVGID_2_">
		<use xlink:href="#SVGID_1_"  overflow="visible"/>
	</clipPath>
	<path clip-path="url(#SVGID_2_)" fill="#ffffff" d="M0,0h21.9l17.5,72.6L54.5,0H77l14.8,72.6L107.5,8c1.8-5.3,5.3-8,10.7-8h13
		L102,103.2H81.8l-16-79.1l-16,79.1H29.4L0,0z"/>
	<path clip-path="url(#SVGID_2_)" fill="#ffffff" d="M163.9,104.7c-7.9,0.6-14.6-0.5-20.2-3.3c-8.3-4.2-12.4-11.5-12.4-21.9
		c0.2-8.1,3-14.2,8.3-18.4c5.3-4.2,14.1-6.8,26.4-8c8.7-1,13-3.7,13-8c-0.4-4.5-4.7-6.8-13-6.8c-7.1,0-11.2,1.9-12.2,5.6h-20.2
		c2.4-14.8,12.8-22.2,31.4-22.2c22.1,0,33.4,7.4,33.8,22.2v27.3c0,13.6-4.9,23.1-14.8,28.5C178.7,102.4,172,104.1,163.9,104.7
		 M163.3,67.6c-8.1,1.6-12.2,5.3-12.2,11.3c0.4,6.3,3.8,9.5,10.1,9.5c5.5,0,10-1.6,13.3-4.7c3.2-3.2,4.7-7.6,4.7-13.3V63
		C174.5,64.8,169.2,66.4,163.3,67.6"/>
	<path clip-path="url(#SVGID_2_)" fill="#ffffff" d="M223.5,0c2.6,0,4.8,0.9,6.8,2.8s3,4.2,3,7v93.4h-20.2V0H223.5z"/>
	<path clip-path="url(#SVGID_2_)" fill="#ffffff" d="M260.6,102.1c-7.6-0.7-11.3-5.5-11.1-14.4V0h10.4c2.6,0,4.8,1,6.8,3
		s3,4.3,3,7.1v12.7h12.2v4.4c0,3-1,5.4-3,7.3s-4.3,2.8-7.1,2.8h-2.1v44.5c0,3.4,2,5,5.9,5h6.2v15.4
		C275.2,102.9,268.2,102.8,260.6,102.1"/>
	<path clip-path="url(#SVGID_2_)" fill="#ffffff" d="M359.7,78.6c-2.4,9.1-6.3,15.7-11.9,19.9c-6.5,4.3-14.2,6.5-23.1,6.5
		c-24.3-0.8-36.5-14.8-36.5-42.1c0-27.3,12.3-41,36.8-41.2c25.5,0,37.4,15.7,35.9,47.1H309c0.8,12.3,6.1,18.4,16,18.4
		c4.7,0,9.1-1.9,13-5.6c1.8-2,4.1-3,6.8-3H359.7z M339.5,54.3c-1.2-10.7-6.1-16-14.8-16c-8.7,0-13.8,5.3-15.4,16H339.5z"/>
	<path clip-path="url(#SVGID_2_)" fill="#ffffff" d="M374.9,61.7c0.6-25.9,14.3-38.8,41.2-38.8h3v21h-6.8
		c-11.3,0-16.9,5.8-16.9,17.5v41.8h-20.5V61.7z"/>
</g>
</svg>
