<?xml version="1.0" standalone="no"?>
<!DOCTYPE svg PUBLIC "-//W3C//DTD SVG 20010904//EN"
 "http://www.w3.org/TR/2001/REC-SVG-20010904/DTD/svg10.dtd">
<svg version="1.0" xmlns="http://www.w3.org/2000/svg"
 width="500.000000pt" height="500.000000pt" viewBox="0 0 500.000000 500.000000"
 preserveAspectRatio="xMidYMid meet">
<metadata>
Created by potrace 1.11, written by Peter Selinger 2001-2013
</metadata>
<g transform="translate(0.000000,500.000000) scale(0.100000,-0.100000)"
fill="#000000" stroke="none">
<path d="M0 2500 l0 -2500 2500 0 2500 0 0 2500 0 2500 -2500 0 -2500 0 0
-2500z m235 859 c39 -12 82 -27 97 -35 14 -8 34 -14 43 -14 9 0 31 -7 48 -15
36 -16 244 -92 297 -107 19 -5 49 -16 65 -23 42 -19 142 -54 190 -66 21 -6 44
-14 50 -18 5 -4 30 -14 55 -21 25 -8 56 -20 70 -27 14 -7 31 -13 37 -13 7 0
41 -11 75 -24 35 -14 88 -33 118 -44 30 -11 64 -23 75 -28 11 -4 25 -8 30 -10
91 -25 188 -79 232 -127 58 -64 65 -94 73 -297 8 -204 16 -236 81 -312 27 -32
30 -40 19 -53 -27 -32 -88 11 -122 85 -24 53 -35 127 -44 310 -4 74 -10 145
-15 156 -10 27 -83 78 -135 94 -22 6 -48 15 -59 20 -19 9 -54 22 -155 56 -25
8 -58 21 -75 29 -16 7 -41 16 -55 20 -14 3 -34 10 -45 15 -11 5 -67 26 -125
46 -346 121 -404 143 -467 170 -17 8 -46 17 -63 20 -17 4 -48 15 -68 25 -20
11 -43 19 -52 19 -9 0 -20 4 -25 8 -6 5 -53 23 -105 41 -52 18 -103 36 -112
42 -25 13 -28 12 -28 -13 0 -42 67 -120 114 -134 11 -3 39 -14 61 -24 70 -31
432 -149 615 -200 41 -11 104 -29 140 -40 36 -10 81 -22 100 -26 19 -3 40 -10
45 -14 6 -4 37 -15 70 -23 140 -38 173 -48 220 -71 56 -27 123 -89 130 -120
13 -62 25 -176 21 -205 -4 -30 1 -88 19 -213 10 -70 90 -171 169 -213 44 -24
61 -58 40 -80 -17 -16 -37 -14 -86 11 -34 18 -57 18 -77 0 -34 -31 -121 -56
-191 -56 -68 0 -71 1 -109 40 -37 38 -42 40 -98 40 -62 0 -87 12 -139 67 -18
20 -32 23 -94 23 -86 0 -120 19 -139 78 l-14 40 -136 4 c-121 3 -142 6 -187
28 -56 27 -85 62 -106 125 -10 31 -19 40 -43 45 -121 26 -237 157 -196 222 10
17 7 25 -26 58 -55 55 -70 75 -93 119 -20 41 -19 62 7 93 13 14 9 24 -31 85
-57 87 -74 145 -51 179 8 13 20 24 25 24 16 0 11 33 -10 65 -22 33 -27 115
-11 159 16 40 33 40 156 5z m4670 6 c18 -17 25 -35 25 -63 0 -48 -25 -123 -46
-139 -14 -10 -12 -15 15 -39 38 -34 41 -74 9 -136 -13 -23 -25 -45 -28 -48 -3
-3 -16 -20 -29 -39 -23 -32 -23 -35 -7 -61 9 -16 16 -38 16 -49 0 -28 -43 -96
-97 -151 -32 -34 -42 -50 -37 -65 12 -38 7 -77 -15 -103 -12 -15 -24 -35 -28
-44 -3 -10 -11 -18 -17 -18 -6 0 -28 -11 -48 -25 -21 -14 -52 -28 -70 -32 -43
-8 -58 -20 -58 -47 0 -35 -46 -92 -97 -121 -45 -26 -57 -28 -195 -33 -125 -4
-148 -7 -148 -20 0 -9 -9 -35 -21 -59 l-21 -43 -88 0 -88 0 -37 -42 c-38 -41
-39 -42 -118 -46 -67 -4 -80 -8 -84 -23 -3 -10 -21 -28 -40 -40 -31 -19 -45
-21 -116 -16 -77 5 -140 26 -171 57 -14 14 -43 12 -69 -4 -12 -8 -35 -16 -52
-18 -28 -3 -30 -1 -30 31 0 23 6 37 20 45 11 6 22 13 25 16 3 3 26 21 52 40
32 24 56 54 78 97 28 55 33 80 46 215 8 84 13 166 11 183 -2 16 0 45 5 64 10
36 48 101 60 101 4 0 23 11 43 24 20 14 55 31 78 39 110 39 204 67 224 67 11
0 34 7 49 15 16 8 36 15 45 15 9 0 47 9 85 21 38 11 107 32 154 46 47 13 103
30 125 38 22 7 87 27 145 45 58 17 112 35 120 40 9 4 31 11 50 15 19 4 44 13
55 19 11 7 33 16 50 20 16 4 48 16 72 27 23 10 46 19 50 19 15 1 48 35 76 78
23 35 26 46 16 58 -7 9 -16 11 -23 5 -6 -5 -56 -25 -111 -44 -156 -55 -298
-106 -320 -116 -45 -19 -136 -52 -240 -87 -60 -20 -114 -40 -120 -44 -5 -4
-23 -10 -40 -14 -16 -4 -43 -14 -60 -21 -16 -7 -47 -19 -68 -25 -22 -7 -51
-18 -65 -26 -15 -8 -33 -14 -40 -14 -8 0 -28 -6 -45 -14 -18 -7 -99 -37 -182
-66 -262 -92 -260 -90 -269 -325 -7 -182 -16 -242 -48 -294 -36 -59 -88 -90
-109 -65 -10 12 -8 20 9 42 80 99 76 82 88 352 8 187 25 230 120 309 22 18
109 61 124 61 9 0 20 4 25 8 6 5 35 17 66 26 31 9 64 23 75 30 10 7 34 16 52
19 19 4 48 13 65 21 18 8 50 19 72 26 22 6 49 15 60 20 11 5 38 14 60 21 22 6
45 15 50 19 6 4 24 10 40 14 17 4 44 14 60 21 17 8 57 23 90 35 164 56 266 92
330 115 39 14 91 32 117 41 25 8 59 21 75 29 15 8 37 15 48 15 11 0 30 6 41
14 11 8 36 16 55 19 19 2 38 5 42 5 4 1 19 -9 32 -23z m-2795 -970 l0 -225
-50 0 -50 0 0 225 0 225 50 0 50 0 0 -225z m290 40 l0 -185 95 0 95 0 0 -40 0
-40 -145 0 -145 0 0 225 0 225 50 0 50 0 0 -185z m640 145 l0 -40 -55 0 -55 0
0 -185 0 -185 -50 0 -50 0 0 185 0 185 -60 0 -60 0 0 40 0 40 165 0 165 0 0
-40z m-568 -734 c14 -28 23 -34 58 -39 64 -8 71 -23 31 -58 -34 -31 -37 -51
-16 -116 10 -32 -17 -30 -49 2 -14 14 -32 25 -41 25 -22 0 -75 -28 -75 -40 0
-6 -7 -10 -16 -10 -13 0 -15 6 -10 28 16 63 18 85 9 91 -5 3 -22 16 -38 29
-27 22 -28 23 -9 37 10 8 33 15 49 15 37 0 47 7 62 43 16 35 26 34 45 -7z"/>
<path d="M170 3002 c0 -25 54 -108 83 -127 13 -8 55 -22 93 -31 38 -8 107 -23
154 -33 47 -11 114 -26 150 -35 36 -9 103 -25 150 -35 47 -11 105 -25 130 -31
104 -25 371 -86 460 -105 36 -7 78 -18 93 -24 16 -6 35 -7 43 -3 27 15 -30 58
-99 75 -60 15 -96 26 -277 82 -47 14 -107 32 -135 40 -129 35 -652 192 -752
225 -76 25 -93 25 -93 2z"/>
<path d="M260 2730 c0 -13 38 -71 55 -82 20 -15 111 -37 195 -48 47 -6 101
-15 120 -21 19 -5 76 -16 125 -24 92 -15 192 -32 460 -80 213 -38 328 -55 334
-50 2 3 -1 16 -7 30 -8 17 -20 25 -38 25 -14 0 -63 8 -108 19 -44 10 -135 31
-201 45 -66 15 -149 34 -185 43 -62 15 -149 33 -251 53 -26 4 -89 18 -140 30
-52 12 -132 30 -179 41 -125 28 -180 34 -180 19z"/>
<path d="M362 2504 c2 -9 12 -22 23 -28 11 -6 22 -14 25 -17 12 -14 75 -39
123 -48 28 -6 110 -15 180 -21 71 -5 132 -12 136 -15 5 -2 80 -11 167 -20 87
-9 184 -20 214 -25 48 -8 264 -30 298 -30 6 0 12 6 12 13 0 8 -23 18 -57 25
-90 18 -416 72 -588 98 -55 8 -131 21 -170 28 -94 19 -325 56 -348 56 -12 0
-17 -6 -15 -16z"/>
<path d="M580 2303 c0 -5 13 -22 30 -40 37 -40 41 -40 445 -50 427 -10 428
-10 432 3 3 8 -36 14 -124 19 -70 4 -147 11 -170 16 -23 5 -108 14 -190 20
-81 5 -188 17 -238 25 -98 15 -185 18 -185 7z"/>
<path d="M1030 2131 c0 -38 21 -42 141 -31 63 6 132 16 154 20 22 5 55 10 73
10 17 0 32 5 32 10 0 7 -72 10 -200 10 -187 -1 -200 -2 -200 -19z"/>
<path d="M1405 2064 c-33 -8 -77 -17 -98 -20 -28 -5 -37 -11 -35 -23 2 -9 14
-17 27 -19 40 -6 191 50 191 70 0 10 -13 9 -85 -8z"/>
<path d="M1565 2020 c-4 -6 -24 -19 -46 -30 -21 -11 -39 -27 -39 -35 0 -19 42
-29 77 -18 26 9 61 54 62 81 1 14 -45 16 -54 2z"/>
<path d="M4760 3005 c-14 -8 -32 -14 -40 -15 -9 0 -76 -18 -150 -41 -74 -23
-148 -45 -165 -49 -16 -4 -70 -20 -120 -35 -49 -15 -148 -45 -220 -66 -71 -21
-200 -59 -285 -85 -85 -25 -176 -52 -202 -59 -75 -22 -103 -38 -106 -64 -3
-20 -1 -23 15 -17 10 4 59 17 108 28 94 20 178 40 355 81 58 14 137 32 175 41
39 8 86 19 105 25 19 5 80 19 135 31 55 12 134 31 175 41 41 10 100 23 130 29
50 10 110 49 110 72 0 4 9 17 20 28 25 25 27 70 3 70 -10 -1 -29 -7 -43 -15z"/>
<path d="M4625 2725 c-33 -7 -105 -23 -160 -35 -55 -12 -138 -31 -185 -41 -47
-10 -125 -27 -175 -38 -49 -11 -126 -27 -170 -36 -44 -9 -105 -23 -135 -30
-30 -8 -119 -28 -197 -46 -120 -27 -142 -35 -147 -53 -3 -11 -4 -21 -2 -23 1
-2 29 1 62 7 122 20 241 41 319 56 44 8 121 21 170 28 127 20 324 55 365 66
19 5 73 14 120 20 47 6 96 15 110 20 14 5 37 11 52 14 24 5 88 77 88 98 0 11
-44 8 -115 -7z"/>
<path d="M4505 2504 c-126 -24 -258 -45 -340 -55 -44 -5 -102 -16 -130 -24
-27 -8 -79 -17 -115 -20 -36 -3 -108 -14 -160 -24 -52 -10 -130 -24 -173 -31
-90 -13 -137 -28 -137 -41 0 -11 132 -4 245 12 39 6 149 19 245 29 96 11 207
24 245 29 39 6 117 15 174 21 118 11 210 35 218 56 3 8 11 14 18 14 12 0 45
31 45 43 0 10 -56 7 -135 -9z"/>
<path d="M4250 2300 c-164 -21 -415 -46 -600 -61 -154 -13 -176 -17 -163 -30
7 -7 90 -7 249 0 131 6 304 11 384 12 179 0 231 8 264 40 24 22 36 60 19 58
-5 0 -73 -9 -153 -19z"/>
<path d="M3590 2141 c0 -13 330 -57 355 -47 8 3 15 17 15 30 l0 25 -185 1
c-102 0 -185 -4 -185 -9z"/>
<path d="M3496 2071 c15 -16 161 -71 186 -71 24 0 68 25 58 32 -7 5 -221 48
-239 48 -10 0 -11 -3 -5 -9z"/>
<path d="M3380 2012 c0 -18 26 -61 44 -74 16 -11 54 -10 77 3 20 10 20 11 3
30 -9 10 -21 19 -26 19 -6 0 -21 9 -35 20 -32 25 -63 26 -63 2z"/>
</g>
</svg>
